<svg width="683" height="1490" viewBox="0 0 683 1490" fill="none" xmlns="http://www.w3.org/2000/svg">
<rect width="683" height="1490" fill="white"/>
<circle cx="194" cy="392" r="50" fill="#C4C4C4"/>
<path d="M173.299 396H167.709V395.221L170.662 391.939C171.1 391.443 171.4 391.041 171.564 390.732C171.732 390.42 171.816 390.098 171.816 389.766C171.816 389.32 171.682 388.955 171.412 388.67C171.143 388.385 170.783 388.242 170.334 388.242C169.795 388.242 169.375 388.396 169.074 388.705C168.777 389.01 168.629 389.436 168.629 389.982H167.545C167.545 389.197 167.797 388.562 168.301 388.078C168.809 387.594 169.486 387.352 170.334 387.352C171.127 387.352 171.754 387.561 172.215 387.979C172.676 388.393 172.906 388.945 172.906 389.637C172.906 390.477 172.371 391.477 171.301 392.637L169.016 395.115H173.299V396ZM177.102 395.232C177.488 395.232 177.826 395.115 178.115 394.881C178.404 394.646 178.564 394.354 178.596 394.002H179.621C179.602 394.365 179.477 394.711 179.246 395.039C179.016 395.367 178.707 395.629 178.32 395.824C177.938 396.02 177.531 396.117 177.102 396.117C176.238 396.117 175.551 395.83 175.039 395.256C174.531 394.678 174.277 393.889 174.277 392.889V392.707C174.277 392.09 174.391 391.541 174.617 391.061C174.844 390.58 175.168 390.207 175.59 389.941C176.016 389.676 176.518 389.543 177.096 389.543C177.807 389.543 178.396 389.756 178.865 390.182C179.338 390.607 179.59 391.16 179.621 391.84H178.596C178.564 391.43 178.408 391.094 178.127 390.832C177.85 390.566 177.506 390.434 177.096 390.434C176.545 390.434 176.117 390.633 175.812 391.031C175.512 391.426 175.361 391.998 175.361 392.748V392.953C175.361 393.684 175.512 394.246 175.812 394.641C176.113 395.035 176.543 395.232 177.102 395.232ZM188.258 391.207H189.072C189.584 391.199 189.986 391.064 190.279 390.803C190.572 390.541 190.719 390.188 190.719 389.742C190.719 388.742 190.221 388.242 189.225 388.242C188.756 388.242 188.381 388.377 188.1 388.646C187.822 388.912 187.684 389.266 187.684 389.707H186.6C186.6 389.031 186.846 388.471 187.338 388.025C187.834 387.576 188.463 387.352 189.225 387.352C190.029 387.352 190.66 387.564 191.117 387.99C191.574 388.416 191.803 389.008 191.803 389.766C191.803 390.137 191.682 390.496 191.439 390.844C191.201 391.191 190.875 391.451 190.461 391.623C190.93 391.771 191.291 392.018 191.545 392.361C191.803 392.705 191.932 393.125 191.932 393.621C191.932 394.387 191.682 394.994 191.182 395.443C190.682 395.893 190.031 396.117 189.23 396.117C188.43 396.117 187.777 395.9 187.273 395.467C186.773 395.033 186.523 394.461 186.523 393.75H187.613C187.613 394.199 187.76 394.559 188.053 394.828C188.346 395.098 188.738 395.232 189.23 395.232C189.754 395.232 190.154 395.096 190.432 394.822C190.709 394.549 190.848 394.156 190.848 393.645C190.848 393.148 190.695 392.768 190.391 392.502C190.086 392.236 189.646 392.1 189.072 392.092H188.258V391.207ZM194.551 389.66L194.58 390.363C195.045 389.816 195.672 389.543 196.461 389.543C197.348 389.543 197.951 389.883 198.271 390.562C198.482 390.258 198.756 390.012 199.092 389.824C199.432 389.637 199.832 389.543 200.293 389.543C201.684 389.543 202.391 390.279 202.414 391.752V396H201.33V391.816C201.33 391.363 201.227 391.025 201.02 390.803C200.812 390.576 200.465 390.463 199.977 390.463C199.574 390.463 199.24 390.584 198.975 390.826C198.709 391.064 198.555 391.387 198.512 391.793V396H197.422V391.846C197.422 390.924 196.971 390.463 196.068 390.463C195.357 390.463 194.871 390.766 194.609 391.371V396H193.525V389.66H194.551ZM209.287 392.818H206.428V391.934H209.287V392.818ZM217.602 395.08H221.645V396H216.471V387.469H217.602V395.08Z" fill="black"/>
<circle cx="307" cy="232" r="50" fill="#C4C4C4"/>
<path d="M287.299 237H281.709V236.221L284.662 232.939C285.1 232.443 285.4 232.041 285.564 231.732C285.732 231.42 285.816 231.098 285.816 230.766C285.816 230.32 285.682 229.955 285.412 229.67C285.143 229.385 284.783 229.242 284.334 229.242C283.795 229.242 283.375 229.396 283.074 229.705C282.777 230.01 282.629 230.436 282.629 230.982H281.545C281.545 230.197 281.797 229.562 282.301 229.078C282.809 228.594 283.486 228.352 284.334 228.352C285.127 228.352 285.754 228.561 286.215 228.979C286.676 229.393 286.906 229.945 286.906 230.637C286.906 231.477 286.371 232.477 285.301 233.637L283.016 236.115H287.299V237ZM291.102 236.232C291.488 236.232 291.826 236.115 292.115 235.881C292.404 235.646 292.564 235.354 292.596 235.002H293.621C293.602 235.365 293.477 235.711 293.246 236.039C293.016 236.367 292.707 236.629 292.32 236.824C291.938 237.02 291.531 237.117 291.102 237.117C290.238 237.117 289.551 236.83 289.039 236.256C288.531 235.678 288.277 234.889 288.277 233.889V233.707C288.277 233.09 288.391 232.541 288.617 232.061C288.844 231.58 289.168 231.207 289.59 230.941C290.016 230.676 290.518 230.543 291.096 230.543C291.807 230.543 292.396 230.756 292.865 231.182C293.338 231.607 293.59 232.16 293.621 232.84H292.596C292.564 232.43 292.408 232.094 292.127 231.832C291.85 231.566 291.506 231.434 291.096 231.434C290.545 231.434 290.117 231.633 289.812 232.031C289.512 232.426 289.361 232.998 289.361 233.748V233.953C289.361 234.684 289.512 235.246 289.812 235.641C290.113 236.035 290.543 236.232 291.102 236.232ZM306.031 233.361C306.031 234.631 305.814 235.574 305.381 236.191C304.947 236.809 304.27 237.117 303.348 237.117C302.438 237.117 301.764 236.816 301.326 236.215C300.889 235.609 300.662 234.707 300.646 233.508V232.061C300.646 230.807 300.863 229.875 301.297 229.266C301.73 228.656 302.41 228.352 303.336 228.352C304.254 228.352 304.93 228.646 305.363 229.236C305.797 229.822 306.02 230.729 306.031 231.955V233.361ZM304.947 231.879C304.947 230.961 304.818 230.293 304.561 229.875C304.303 229.453 303.895 229.242 303.336 229.242C302.781 229.242 302.377 229.451 302.123 229.869C301.869 230.287 301.738 230.93 301.73 231.797V233.531C301.73 234.453 301.863 235.135 302.129 235.576C302.398 236.014 302.805 236.232 303.348 236.232C303.883 236.232 304.279 236.025 304.537 235.611C304.799 235.197 304.936 234.545 304.947 233.654V231.879ZM308.551 230.66L308.58 231.363C309.045 230.816 309.672 230.543 310.461 230.543C311.348 230.543 311.951 230.883 312.271 231.562C312.482 231.258 312.756 231.012 313.092 230.824C313.432 230.637 313.832 230.543 314.293 230.543C315.684 230.543 316.391 231.279 316.414 232.752V237H315.33V232.816C315.33 232.363 315.227 232.025 315.02 231.803C314.812 231.576 314.465 231.463 313.977 231.463C313.574 231.463 313.24 231.584 312.975 231.826C312.709 232.064 312.555 232.387 312.512 232.793V237H311.422V232.846C311.422 231.924 310.971 231.463 310.068 231.463C309.357 231.463 308.871 231.766 308.609 232.371V237H307.525V230.66H308.551ZM323.287 233.818H320.428V232.934H323.287V233.818ZM330.623 233.549H328.619V237H327.488V228.469H330.312C331.273 228.469 332.012 228.688 332.527 229.125C333.047 229.562 333.307 230.199 333.307 231.035C333.307 231.566 333.162 232.029 332.873 232.424C332.588 232.818 332.189 233.113 331.678 233.309L333.682 236.93V237H332.475L330.623 233.549ZM328.619 232.629H330.348C330.906 232.629 331.35 232.484 331.678 232.195C332.01 231.906 332.176 231.52 332.176 231.035C332.176 230.508 332.018 230.104 331.701 229.822C331.389 229.541 330.936 229.398 330.342 229.395H328.619V232.629Z" fill="black"/>
<circle cx="537" cy="240" r="50" fill="#C4C4C4"/>
<path d="M515.271 243H514.182V235.775L511.996 236.578V235.594L515.102 234.428H515.271V243ZM521.102 242.232C521.488 242.232 521.826 242.115 522.115 241.881C522.404 241.646 522.564 241.354 522.596 241.002H523.621C523.602 241.365 523.477 241.711 523.246 242.039C523.016 242.367 522.707 242.629 522.32 242.824C521.938 243.02 521.531 243.117 521.102 243.117C520.238 243.117 519.551 242.83 519.039 242.256C518.531 241.678 518.277 240.889 518.277 239.889V239.707C518.277 239.09 518.391 238.541 518.617 238.061C518.844 237.58 519.168 237.207 519.59 236.941C520.016 236.676 520.518 236.543 521.096 236.543C521.807 236.543 522.396 236.756 522.865 237.182C523.338 237.607 523.59 238.16 523.621 238.84H522.596C522.564 238.43 522.408 238.094 522.127 237.832C521.85 237.566 521.506 237.434 521.096 237.434C520.545 237.434 520.117 237.633 519.812 238.031C519.512 238.426 519.361 238.998 519.361 239.748V239.953C519.361 240.684 519.512 241.246 519.812 241.641C520.113 242.035 520.543 242.232 521.102 242.232ZM536.031 239.361C536.031 240.631 535.814 241.574 535.381 242.191C534.947 242.809 534.27 243.117 533.348 243.117C532.438 243.117 531.764 242.816 531.326 242.215C530.889 241.609 530.662 240.707 530.646 239.508V238.061C530.646 236.807 530.863 235.875 531.297 235.266C531.73 234.656 532.41 234.352 533.336 234.352C534.254 234.352 534.93 234.646 535.363 235.236C535.797 235.822 536.02 236.729 536.031 237.955V239.361ZM534.947 237.879C534.947 236.961 534.818 236.293 534.561 235.875C534.303 235.453 533.895 235.242 533.336 235.242C532.781 235.242 532.377 235.451 532.123 235.869C531.869 236.287 531.738 236.93 531.73 237.797V239.531C531.73 240.453 531.863 241.135 532.129 241.576C532.398 242.014 532.805 242.232 533.348 242.232C533.883 242.232 534.279 242.025 534.537 241.611C534.799 241.197 534.936 240.545 534.947 239.654V237.879ZM538.551 236.66L538.58 237.363C539.045 236.816 539.672 236.543 540.461 236.543C541.348 236.543 541.951 236.883 542.271 237.562C542.482 237.258 542.756 237.012 543.092 236.824C543.432 236.637 543.832 236.543 544.293 236.543C545.684 236.543 546.391 237.279 546.414 238.752V243H545.33V238.816C545.33 238.363 545.227 238.025 545.02 237.803C544.812 237.576 544.465 237.463 543.977 237.463C543.574 237.463 543.24 237.584 542.975 237.826C542.709 238.064 542.555 238.387 542.512 238.793V243H541.422V238.846C541.422 237.924 540.971 237.463 540.068 237.463C539.357 237.463 538.871 237.766 538.609 238.371V243H537.525V236.66H538.551ZM553.287 239.818H550.428V238.934H553.287V239.818ZM560.623 239.549H558.619V243H557.488V234.469H560.312C561.273 234.469 562.012 234.688 562.527 235.125C563.047 235.562 563.307 236.199 563.307 237.035C563.307 237.566 563.162 238.029 562.873 238.424C562.588 238.818 562.189 239.113 561.678 239.309L563.682 242.93V243H562.475L560.623 239.549ZM558.619 238.629H560.348C560.906 238.629 561.35 238.484 561.678 238.195C562.01 237.906 562.176 237.52 562.176 237.035C562.176 236.508 562.018 236.104 561.701 235.822C561.389 235.541 560.936 235.398 560.342 235.395H558.619V238.629Z" fill="black"/>
<circle cx="94" cy="237" r="50" fill="#C4C4C4"/>
<path d="M70.2715 241H69.1816V233.775L66.9961 234.578V233.594L70.1016 232.428H70.2715V241ZM76.1016 240.232C76.4883 240.232 76.8262 240.115 77.1152 239.881C77.4043 239.646 77.5645 239.354 77.5957 239.002H78.6211C78.6016 239.365 78.4766 239.711 78.2461 240.039C78.0156 240.367 77.707 240.629 77.3203 240.824C76.9375 241.02 76.5312 241.117 76.1016 241.117C75.2383 241.117 74.5508 240.83 74.0391 240.256C73.5312 239.678 73.2773 238.889 73.2773 237.889V237.707C73.2773 237.09 73.3906 236.541 73.6172 236.061C73.8438 235.58 74.168 235.207 74.5898 234.941C75.0156 234.676 75.5176 234.543 76.0957 234.543C76.8066 234.543 77.3965 234.756 77.8652 235.182C78.3379 235.607 78.5898 236.16 78.6211 236.84H77.5957C77.5645 236.43 77.4082 236.094 77.127 235.832C76.8496 235.566 76.5059 235.434 76.0957 235.434C75.5449 235.434 75.1172 235.633 74.8125 236.031C74.5117 236.426 74.3613 236.998 74.3613 237.748V237.953C74.3613 238.684 74.5117 239.246 74.8125 239.641C75.1133 240.035 75.543 240.232 76.1016 240.232ZM89.2441 241H88.1543V233.775L85.9688 234.578V233.594L89.0742 232.428H89.2441V241ZM93.5508 234.66L93.5801 235.363C94.0449 234.816 94.6719 234.543 95.4609 234.543C96.3477 234.543 96.9512 234.883 97.2715 235.562C97.4824 235.258 97.7559 235.012 98.0918 234.824C98.4316 234.637 98.832 234.543 99.293 234.543C100.684 234.543 101.391 235.279 101.414 236.752V241H100.33V236.816C100.33 236.363 100.227 236.025 100.02 235.803C99.8125 235.576 99.4648 235.463 98.9766 235.463C98.5742 235.463 98.2402 235.584 97.9746 235.826C97.709 236.064 97.5547 236.387 97.5117 236.793V241H96.4219V236.846C96.4219 235.924 95.9707 235.463 95.0684 235.463C94.3574 235.463 93.8711 235.766 93.6094 236.371V241H92.5254V234.66H93.5508ZM108.287 237.818H105.428V236.934H108.287V237.818ZM118.6 237.549H116.596V241H115.465V232.469H118.289C119.25 232.469 119.988 232.688 120.504 233.125C121.023 233.562 121.283 234.199 121.283 235.035C121.283 235.566 121.139 236.029 120.85 236.424C120.564 236.818 120.166 237.113 119.654 237.309L121.658 240.93V241H120.451L118.6 237.549ZM116.596 236.629H118.324C118.883 236.629 119.326 236.484 119.654 236.195C119.986 235.906 120.152 235.52 120.152 235.035C120.152 234.508 119.994 234.104 119.678 233.822C119.365 233.541 118.912 233.398 118.318 233.395H116.596V236.629Z" fill="black"/>
<circle cx="307" cy="101" r="50" fill="#C4C4C4"/>
<path d="M283.285 100.207H284.1C284.611 100.199 285.014 100.064 285.307 99.8027C285.6 99.541 285.746 99.1875 285.746 98.7422C285.746 97.7422 285.248 97.2422 284.252 97.2422C283.783 97.2422 283.408 97.377 283.127 97.6465C282.85 97.9121 282.711 98.2656 282.711 98.707H281.627C281.627 98.0312 281.873 97.4707 282.365 97.0254C282.861 96.5762 283.49 96.3516 284.252 96.3516C285.057 96.3516 285.688 96.5645 286.145 96.9902C286.602 97.416 286.83 98.0078 286.83 98.7656C286.83 99.1367 286.709 99.4961 286.467 99.8438C286.229 100.191 285.902 100.451 285.488 100.623C285.957 100.771 286.318 101.018 286.572 101.361C286.83 101.705 286.959 102.125 286.959 102.621C286.959 103.387 286.709 103.994 286.209 104.443C285.709 104.893 285.059 105.117 284.258 105.117C283.457 105.117 282.805 104.9 282.301 104.467C281.801 104.033 281.551 103.461 281.551 102.75H282.641C282.641 103.199 282.787 103.559 283.08 103.828C283.373 104.098 283.766 104.232 284.258 104.232C284.781 104.232 285.182 104.096 285.459 103.822C285.736 103.549 285.875 103.156 285.875 102.645C285.875 102.148 285.723 101.768 285.418 101.502C285.113 101.236 284.674 101.1 284.1 101.092H283.285V100.207ZM291.102 104.232C291.488 104.232 291.826 104.115 292.115 103.881C292.404 103.646 292.564 103.354 292.596 103.002H293.621C293.602 103.365 293.477 103.711 293.246 104.039C293.016 104.367 292.707 104.629 292.32 104.824C291.938 105.02 291.531 105.117 291.102 105.117C290.238 105.117 289.551 104.83 289.039 104.256C288.531 103.678 288.277 102.889 288.277 101.889V101.707C288.277 101.09 288.391 100.541 288.617 100.061C288.844 99.5801 289.168 99.207 289.59 98.9414C290.016 98.6758 290.518 98.543 291.096 98.543C291.807 98.543 292.396 98.7559 292.865 99.1816C293.338 99.6074 293.59 100.16 293.621 100.84H292.596C292.564 100.43 292.408 100.094 292.127 99.832C291.85 99.5664 291.506 99.4336 291.096 99.4336C290.545 99.4336 290.117 99.6328 289.812 100.031C289.512 100.426 289.361 100.998 289.361 101.748V101.953C289.361 102.684 289.512 103.246 289.812 103.641C290.113 104.035 290.543 104.232 291.102 104.232ZM302.258 100.207H303.072C303.584 100.199 303.986 100.064 304.279 99.8027C304.572 99.541 304.719 99.1875 304.719 98.7422C304.719 97.7422 304.221 97.2422 303.225 97.2422C302.756 97.2422 302.381 97.377 302.1 97.6465C301.822 97.9121 301.684 98.2656 301.684 98.707H300.6C300.6 98.0312 300.846 97.4707 301.338 97.0254C301.834 96.5762 302.463 96.3516 303.225 96.3516C304.029 96.3516 304.66 96.5645 305.117 96.9902C305.574 97.416 305.803 98.0078 305.803 98.7656C305.803 99.1367 305.682 99.4961 305.439 99.8438C305.201 100.191 304.875 100.451 304.461 100.623C304.93 100.771 305.291 101.018 305.545 101.361C305.803 101.705 305.932 102.125 305.932 102.621C305.932 103.387 305.682 103.994 305.182 104.443C304.682 104.893 304.031 105.117 303.23 105.117C302.43 105.117 301.777 104.9 301.273 104.467C300.773 104.033 300.523 103.461 300.523 102.75H301.613C301.613 103.199 301.76 103.559 302.053 103.828C302.346 104.098 302.738 104.232 303.23 104.232C303.754 104.232 304.154 104.096 304.432 103.822C304.709 103.549 304.848 103.156 304.848 102.645C304.848 102.148 304.695 101.768 304.391 101.502C304.086 101.236 303.646 101.1 303.072 101.092H302.258V100.207ZM308.551 98.6602L308.58 99.3633C309.045 98.8164 309.672 98.543 310.461 98.543C311.348 98.543 311.951 98.8828 312.271 99.5625C312.482 99.2578 312.756 99.0117 313.092 98.8242C313.432 98.6367 313.832 98.543 314.293 98.543C315.684 98.543 316.391 99.2793 316.414 100.752V105H315.33V100.816C315.33 100.363 315.227 100.025 315.02 99.8027C314.812 99.5762 314.465 99.4629 313.977 99.4629C313.574 99.4629 313.24 99.584 312.975 99.8262C312.709 100.064 312.555 100.387 312.512 100.793V105H311.422V100.846C311.422 99.9238 310.971 99.4629 310.068 99.4629C309.357 99.4629 308.871 99.7656 308.609 100.371V105H307.525V98.6602H308.551ZM323.287 101.818H320.428V100.934H323.287V101.818ZM328.625 104.08H332.668V105H327.494V96.4688H328.625V104.08Z" fill="black"/>
<path d="M132.514 194.883C132.449 195.152 132.615 195.422 132.883 195.486L137.259 196.536C137.528 196.601 137.797 196.435 137.862 196.167C137.926 195.898 137.761 195.628 137.492 195.564L133.603 194.63L134.536 190.741C134.601 190.472 134.435 190.203 134.167 190.138C133.898 190.074 133.628 190.239 133.564 190.508L132.514 194.883ZM256.739 118.574L132.739 194.574L133.261 195.426L257.261 119.426L256.739 118.574Z" fill="black"/>
<path d="M497.132 199.482C497.398 199.41 497.555 199.135 497.482 198.868L496.298 194.527C496.226 194.261 495.951 194.104 495.684 194.176C495.418 194.249 495.261 194.524 495.334 194.79L496.386 198.649L492.527 199.702C492.261 199.774 492.104 200.049 492.176 200.316C492.249 200.582 492.524 200.739 492.79 200.666L497.132 199.482ZM356.752 119.434L496.752 199.434L497.248 198.566L357.248 118.566L356.752 119.434Z" fill="black"/>
<path d="M307.146 180.363C307.342 180.558 307.658 180.558 307.854 180.363L311.036 177.181C311.231 176.986 311.231 176.669 311.036 176.474C310.84 176.278 310.524 176.278 310.328 176.474L307.5 179.302L304.672 176.474C304.476 176.278 304.16 176.278 303.964 176.474C303.769 176.669 303.769 176.986 303.964 177.181L307.146 180.363ZM307 152.991V180.009H308V152.991H307Z" fill="black"/>
<path d="M223.508 341.913C223.459 342.185 223.641 342.444 223.913 342.492L228.344 343.278C228.616 343.326 228.875 343.145 228.923 342.873C228.971 342.601 228.79 342.342 228.518 342.293L224.58 341.595L225.278 337.656C225.326 337.384 225.145 337.125 224.873 337.077C224.601 337.029 224.342 337.21 224.293 337.482L223.508 341.913ZM306.714 283.59L223.714 341.59L224.286 342.41L307.286 284.41L306.714 283.59Z" fill="black"/>
<path d="M168.958 342.498C169.233 342.521 169.475 342.317 169.498 342.042L169.875 337.558C169.899 337.283 169.694 337.041 169.419 337.018C169.144 336.994 168.902 337.199 168.879 337.474L168.544 341.46L164.558 341.125C164.283 341.101 164.041 341.306 164.018 341.581C163.994 341.856 164.199 342.098 164.474 342.121L168.958 342.498ZM119.618 284.323L168.618 342.323L169.382 341.677L120.382 283.677L119.618 284.323Z" fill="black"/>
<path d="M285.02 478.5C285.296 478.488 285.511 478.256 285.5 477.98L285.316 473.483C285.305 473.207 285.072 472.993 284.796 473.004C284.52 473.015 284.306 473.248 284.317 473.524L284.48 477.521L280.483 477.684C280.207 477.695 279.993 477.928 280.004 478.204C280.015 478.48 280.248 478.694 280.524 478.683L285.02 478.5ZM233.661 431.368L284.661 478.368L285.339 477.632L234.339 430.632L233.661 431.368Z" fill="black"/>
<path d="M209.501 575.193C209.481 575.468 209.687 575.708 209.963 575.729L214.45 576.066C214.725 576.086 214.965 575.88 214.986 575.605C215.007 575.329 214.8 575.089 214.525 575.068L210.536 574.769L210.836 570.78C210.856 570.505 210.65 570.265 210.374 570.244C210.099 570.223 209.859 570.43 209.838 570.705L209.501 575.193ZM262.25 529.621L209.674 574.851L210.326 575.609L262.902 530.379L262.25 529.621Z" fill="black"/>
<path d="M209.501 775.193C209.481 775.468 209.687 775.708 209.963 775.729L214.45 776.066C214.725 776.086 214.965 775.88 214.986 775.605C215.007 775.329 214.8 775.089 214.525 775.068L210.536 774.769L210.836 770.78C210.856 770.505 210.65 770.265 210.374 770.244C210.099 770.223 209.859 770.43 209.838 770.705L209.501 775.193ZM262.25 729.621L209.674 774.851L210.326 775.609L262.902 730.379L262.25 729.621Z" fill="black"/>
<path d="M209.501 973.193C209.481 973.468 209.687 973.708 209.963 973.729L214.45 974.066C214.725 974.086 214.965 973.88 214.986 973.605C215.007 973.329 214.8 973.089 214.525 973.068L210.536 972.769L210.836 968.78C210.856 968.505 210.65 968.265 210.374 968.244C210.099 968.223 209.859 968.43 209.838 968.705L209.501 973.193ZM262.25 927.621L209.674 972.851L210.326 973.609L262.902 928.379L262.25 927.621Z" fill="black"/>
<path d="M209.501 1173.19C209.481 1173.47 209.687 1173.71 209.963 1173.73L214.45 1174.07C214.725 1174.09 214.965 1173.88 214.986 1173.6C215.007 1173.33 214.8 1173.09 214.525 1173.07L210.536 1172.77L210.836 1168.78C210.856 1168.5 210.65 1168.26 210.374 1168.24C210.099 1168.22 209.859 1168.43 209.838 1168.71L209.501 1173.19ZM262.25 1127.62L209.674 1172.85L210.326 1173.61L262.902 1128.38L262.25 1127.62Z" fill="black"/>
<path d="M295.947 673.748C296.218 673.693 296.393 673.428 296.338 673.158L295.439 668.749C295.384 668.478 295.12 668.303 294.849 668.359C294.578 668.414 294.404 668.678 294.459 668.948L295.258 672.868L291.338 673.667C291.068 673.722 290.893 673.986 290.948 674.256C291.003 674.527 291.268 674.702 291.538 674.646L295.947 673.748ZM237.724 635.417L295.572 673.675L296.123 672.841L238.276 634.583L237.724 635.417Z" fill="black"/>
<path d="M295.947 873.748C296.218 873.693 296.393 873.428 296.338 873.158L295.439 868.749C295.384 868.478 295.12 868.303 294.849 868.359C294.578 868.414 294.404 868.678 294.459 868.948L295.258 872.868L291.338 873.667C291.068 873.722 290.893 873.986 290.948 874.256C291.003 874.527 291.268 874.702 291.538 874.646L295.947 873.748ZM237.724 835.417L295.572 873.675L296.123 872.841L238.276 834.583L237.724 835.417Z" fill="black"/>
<path d="M295.947 1073.75C296.218 1073.69 296.393 1073.43 296.338 1073.16L295.439 1068.75C295.384 1068.48 295.12 1068.3 294.849 1068.36C294.578 1068.41 294.404 1068.68 294.459 1068.95L295.258 1072.87L291.338 1073.67C291.068 1073.72 290.893 1073.99 290.948 1074.26C291.003 1074.53 291.268 1074.7 291.538 1074.65L295.947 1073.75ZM237.724 1035.42L295.572 1073.67L296.123 1072.84L238.276 1034.58L237.724 1035.42Z" fill="black"/>
<path d="M429.083 1165.49C429.355 1165.45 429.539 1165.19 429.493 1164.92L428.745 1160.48C428.699 1160.21 428.441 1160.02 428.169 1160.07C427.897 1160.12 427.713 1160.37 427.759 1160.65L428.424 1164.59L424.479 1165.25C424.207 1165.3 424.024 1165.56 424.07 1165.83C424.115 1166.1 424.373 1166.29 424.646 1166.24L429.083 1165.49ZM376.71 1128.41L428.71 1165.41L429.29 1164.59L377.29 1127.59L376.71 1128.41Z" fill="black"/>
<path d="M306.805 72H305.485L300.475 64.3301V72H299.155V62.0469H300.475L305.499 69.751V62.0469H306.805V72ZM315.049 67.7549C315.049 69.236 314.796 70.3366 314.29 71.0566C313.784 71.7767 312.993 72.1367 311.918 72.1367C310.856 72.1367 310.07 71.7858 309.56 71.084C309.049 70.3776 308.785 69.3249 308.767 67.9258V66.2373C308.767 64.7744 309.02 63.6875 309.525 62.9766C310.031 62.2656 310.824 61.9102 311.904 61.9102C312.975 61.9102 313.764 62.2542 314.27 62.9424C314.775 63.626 315.035 64.6833 315.049 66.1143V67.7549ZM313.784 66.0254C313.784 64.9544 313.634 64.1751 313.333 63.6875C313.032 63.1953 312.556 62.9492 311.904 62.9492C311.257 62.9492 310.785 63.193 310.489 63.6807C310.193 64.1683 310.04 64.918 310.031 65.9297V67.9531C310.031 69.0286 310.186 69.8239 310.496 70.3389C310.811 70.8493 311.285 71.1045 311.918 71.1045C312.542 71.1045 313.005 70.863 313.306 70.3799C313.611 69.8968 313.771 69.1357 313.784 68.0967V66.0254Z" fill="black"/>
<path d="M93.8047 208H92.4854L87.4746 200.33V208H86.1553V198.047H87.4746L92.499 205.751V198.047H93.8047V208ZM99.9639 208H98.6924V199.571L96.1426 200.508V199.359L99.7656 197.999H99.9639V208Z" fill="black"/>
<path d="M306.805 203H305.485L300.475 195.33V203H299.155V193.047H300.475L305.499 200.751V193.047H306.805V203ZM315.329 203H308.808V202.091L312.253 198.263C312.763 197.684 313.114 197.215 313.306 196.854C313.502 196.49 313.6 196.114 313.6 195.727C313.6 195.207 313.442 194.781 313.128 194.448C312.813 194.116 312.394 193.949 311.87 193.949C311.241 193.949 310.751 194.129 310.4 194.489C310.054 194.845 309.881 195.341 309.881 195.979H308.616C308.616 195.063 308.91 194.323 309.498 193.758C310.09 193.193 310.881 192.91 311.87 192.91C312.795 192.91 313.527 193.154 314.064 193.642C314.602 194.125 314.871 194.77 314.871 195.576C314.871 196.556 314.247 197.723 312.998 199.076L310.332 201.968H315.329V203Z" fill="black"/>
<path d="M536.805 211H535.485L530.475 203.33V211H529.155V201.047H530.475L535.499 208.751V201.047H536.805V211ZM540.646 205.408H541.597C542.194 205.399 542.663 205.242 543.005 204.937C543.347 204.631 543.518 204.219 543.518 203.699C543.518 202.533 542.937 201.949 541.774 201.949C541.228 201.949 540.79 202.106 540.462 202.421C540.138 202.731 539.977 203.143 539.977 203.658H538.712C538.712 202.87 538.999 202.216 539.573 201.696C540.152 201.172 540.886 200.91 541.774 200.91C542.713 200.91 543.449 201.159 543.982 201.655C544.516 202.152 544.782 202.842 544.782 203.727C544.782 204.16 544.641 204.579 544.358 204.984C544.08 205.39 543.7 205.693 543.217 205.894C543.764 206.067 544.185 206.354 544.481 206.755C544.782 207.156 544.933 207.646 544.933 208.225C544.933 209.118 544.641 209.826 544.058 210.351C543.474 210.875 542.715 211.137 541.781 211.137C540.847 211.137 540.086 210.884 539.498 210.378C538.915 209.872 538.623 209.204 538.623 208.375H539.895C539.895 208.899 540.065 209.318 540.407 209.633C540.749 209.947 541.207 210.104 541.781 210.104C542.392 210.104 542.859 209.945 543.183 209.626C543.506 209.307 543.668 208.849 543.668 208.252C543.668 207.673 543.49 207.229 543.135 206.919C542.779 206.609 542.267 206.45 541.597 206.44H540.646V205.408Z" fill="black"/>
<path d="M192.805 363H191.485L186.475 355.33V363H185.155V353.047H186.475L191.499 360.751V353.047H192.805V363ZM200.146 359.657H201.527V360.689H200.146V363H198.875V360.689H194.343V359.944L198.8 353.047H200.146V359.657ZM195.778 359.657H198.875V354.776L198.725 355.05L195.778 359.657Z" fill="black"/>
<path d="M297.222 135.499C297.782 134.811 298.511 134.467 299.409 134.467C300.972 134.467 301.761 135.349 301.774 137.112V142H300.51V137.105C300.505 136.572 300.382 136.178 300.141 135.923C299.904 135.668 299.532 135.54 299.026 135.54C298.616 135.54 298.256 135.649 297.946 135.868C297.636 136.087 297.395 136.374 297.222 136.729V142H295.957V131.5H297.222V135.499ZM309.451 136.436H303.75V135.335H309.451V136.436ZM309.451 139.272H303.75V138.179H309.451V139.272ZM316.185 132.04V133.113H315.952C314.968 133.132 314.184 133.423 313.601 133.988C313.017 134.553 312.68 135.349 312.589 136.374C313.113 135.772 313.828 135.472 314.735 135.472C315.601 135.472 316.292 135.777 316.807 136.388C317.326 136.998 317.586 137.787 317.586 138.753C317.586 139.778 317.306 140.599 316.745 141.214C316.189 141.829 315.442 142.137 314.503 142.137C313.55 142.137 312.778 141.772 312.186 141.043C311.593 140.309 311.297 139.366 311.297 138.213V137.728C311.297 135.896 311.687 134.496 312.466 133.53C313.25 132.56 314.414 132.063 315.959 132.04H316.185ZM314.523 136.524C314.09 136.524 313.692 136.654 313.327 136.914C312.963 137.174 312.71 137.5 312.568 137.892V138.356C312.568 139.177 312.753 139.838 313.122 140.339C313.491 140.84 313.951 141.091 314.503 141.091C315.073 141.091 315.519 140.881 315.843 140.462C316.171 140.043 316.335 139.493 316.335 138.814C316.335 138.131 316.169 137.579 315.836 137.16C315.508 136.736 315.07 136.524 314.523 136.524Z" fill="black"/>
<path d="M297.222 266.499C297.782 265.811 298.511 265.467 299.409 265.467C300.972 265.467 301.761 266.349 301.774 268.112V273H300.51V268.105C300.505 267.572 300.382 267.178 300.141 266.923C299.904 266.668 299.532 266.54 299.026 266.54C298.616 266.54 298.256 266.649 297.946 266.868C297.636 267.087 297.395 267.374 297.222 267.729V273H295.957V262.5H297.222V266.499ZM309.451 267.436H303.75V266.335H309.451V267.436ZM309.451 270.272H303.75V269.179H309.451V270.272ZM316.561 269.657H317.941V270.689H316.561V273H315.289V270.689H310.757V269.944L315.214 263.047H316.561V269.657ZM312.192 269.657H315.289V264.776L315.139 265.05L312.192 269.657Z" fill="black"/>
<path d="M188.222 424.499C188.782 423.811 189.511 423.467 190.409 423.467C191.972 423.467 192.761 424.349 192.774 426.112V431H191.51V426.105C191.505 425.572 191.382 425.178 191.141 424.923C190.904 424.668 190.532 424.54 190.026 424.54C189.616 424.54 189.256 424.649 188.946 424.868C188.636 425.087 188.395 425.374 188.222 425.729V431H186.957V420.5H188.222V424.499ZM200.451 425.436H194.75V424.335H200.451V425.436ZM200.451 428.272H194.75V427.179H200.451V428.272ZM202.803 426.01L203.309 421.047H208.408V422.216H204.382L204.081 424.93C204.569 424.643 205.122 424.499 205.742 424.499C206.649 424.499 207.369 424.8 207.902 425.401C208.436 425.998 208.702 426.807 208.702 427.828C208.702 428.854 208.424 429.662 207.868 430.255C207.317 430.843 206.544 431.137 205.551 431.137C204.671 431.137 203.953 430.893 203.397 430.405C202.841 429.918 202.525 429.243 202.447 428.382H203.644C203.721 428.951 203.924 429.382 204.252 429.674C204.58 429.961 205.013 430.104 205.551 430.104C206.139 430.104 206.599 429.904 206.932 429.503C207.269 429.102 207.438 428.548 207.438 427.842C207.438 427.176 207.255 426.643 206.891 426.242C206.531 425.837 206.05 425.634 205.448 425.634C204.897 425.634 204.464 425.755 204.149 425.996L203.814 426.27L202.803 426.01Z" fill="black"/>
<circle cx="317" cy="523" r="50" fill="#C4C4C4"/>
<path d="M293.285 522.207H294.1C294.611 522.199 295.014 522.064 295.307 521.803C295.6 521.541 295.746 521.188 295.746 520.742C295.746 519.742 295.248 519.242 294.252 519.242C293.783 519.242 293.408 519.377 293.127 519.646C292.85 519.912 292.711 520.266 292.711 520.707H291.627C291.627 520.031 291.873 519.471 292.365 519.025C292.861 518.576 293.49 518.352 294.252 518.352C295.057 518.352 295.688 518.564 296.145 518.99C296.602 519.416 296.83 520.008 296.83 520.766C296.83 521.137 296.709 521.496 296.467 521.844C296.229 522.191 295.902 522.451 295.488 522.623C295.957 522.771 296.318 523.018 296.572 523.361C296.83 523.705 296.959 524.125 296.959 524.621C296.959 525.387 296.709 525.994 296.209 526.443C295.709 526.893 295.059 527.117 294.258 527.117C293.457 527.117 292.805 526.9 292.301 526.467C291.801 526.033 291.551 525.461 291.551 524.75H292.641C292.641 525.199 292.787 525.559 293.08 525.828C293.373 526.098 293.766 526.232 294.258 526.232C294.781 526.232 295.182 526.096 295.459 525.822C295.736 525.549 295.875 525.156 295.875 524.645C295.875 524.148 295.723 523.768 295.418 523.502C295.113 523.236 294.674 523.1 294.1 523.092H293.285V522.207ZM301.102 526.232C301.488 526.232 301.826 526.115 302.115 525.881C302.404 525.646 302.564 525.354 302.596 525.002H303.621C303.602 525.365 303.477 525.711 303.246 526.039C303.016 526.367 302.707 526.629 302.32 526.824C301.938 527.02 301.531 527.117 301.102 527.117C300.238 527.117 299.551 526.83 299.039 526.256C298.531 525.678 298.277 524.889 298.277 523.889V523.707C298.277 523.09 298.391 522.541 298.617 522.061C298.844 521.58 299.168 521.207 299.59 520.941C300.016 520.676 300.518 520.543 301.096 520.543C301.807 520.543 302.396 520.756 302.865 521.182C303.338 521.607 303.59 522.16 303.621 522.84H302.596C302.564 522.43 302.408 522.094 302.127 521.832C301.85 521.566 301.506 521.434 301.096 521.434C300.545 521.434 300.117 521.633 299.812 522.031C299.512 522.426 299.361 522.998 299.361 523.748V523.953C299.361 524.684 299.512 525.246 299.812 525.641C300.113 526.035 300.543 526.232 301.102 526.232ZM316.031 523.361C316.031 524.631 315.814 525.574 315.381 526.191C314.947 526.809 314.27 527.117 313.348 527.117C312.438 527.117 311.764 526.816 311.326 526.215C310.889 525.609 310.662 524.707 310.646 523.508V522.061C310.646 520.807 310.863 519.875 311.297 519.266C311.73 518.656 312.41 518.352 313.336 518.352C314.254 518.352 314.93 518.646 315.363 519.236C315.797 519.822 316.02 520.729 316.031 521.955V523.361ZM314.947 521.879C314.947 520.961 314.818 520.293 314.561 519.875C314.303 519.453 313.895 519.242 313.336 519.242C312.781 519.242 312.377 519.451 312.123 519.869C311.869 520.287 311.738 520.93 311.73 521.797V523.531C311.73 524.453 311.863 525.135 312.129 525.576C312.398 526.014 312.805 526.232 313.348 526.232C313.883 526.232 314.279 526.025 314.537 525.611C314.799 525.197 314.936 524.545 314.947 523.654V521.879ZM318.551 520.66L318.58 521.363C319.045 520.816 319.672 520.543 320.461 520.543C321.348 520.543 321.951 520.883 322.271 521.562C322.482 521.258 322.756 521.012 323.092 520.824C323.432 520.637 323.832 520.543 324.293 520.543C325.684 520.543 326.391 521.279 326.414 522.752V527H325.33V522.816C325.33 522.363 325.227 522.025 325.02 521.803C324.812 521.576 324.465 521.463 323.977 521.463C323.574 521.463 323.24 521.584 322.975 521.826C322.709 522.064 322.555 522.387 322.512 522.793V527H321.422V522.846C321.422 521.924 320.971 521.463 320.068 521.463C319.357 521.463 318.871 521.766 318.609 522.371V527H317.525V520.66H318.551ZM333.287 523.818H330.428V522.934H333.287V523.818ZM340.623 523.549H338.619V527H337.488V518.469H340.312C341.273 518.469 342.012 518.688 342.527 519.125C343.047 519.562 343.307 520.199 343.307 521.035C343.307 521.566 343.162 522.029 342.873 522.424C342.588 522.818 342.189 523.113 341.678 523.309L343.682 526.93V527H342.475L340.623 523.549ZM338.619 522.629H340.348C340.906 522.629 341.35 522.484 341.678 522.195C342.01 521.906 342.176 521.52 342.176 521.035C342.176 520.508 342.018 520.104 341.701 519.822C341.389 519.541 340.936 519.398 340.342 519.395H338.619V522.629Z" fill="black"/>
<path d="M316.805 494H315.485L310.475 486.33V494H309.155V484.047H310.475L315.499 491.751V484.047H316.805V494ZM319.389 489.01L319.895 484.047H324.994V485.216H320.968L320.667 487.93C321.155 487.643 321.708 487.499 322.328 487.499C323.235 487.499 323.955 487.8 324.488 488.401C325.021 488.998 325.288 489.807 325.288 490.828C325.288 491.854 325.01 492.662 324.454 493.255C323.903 493.843 323.13 494.137 322.137 494.137C321.257 494.137 320.539 493.893 319.983 493.405C319.427 492.918 319.111 492.243 319.033 491.382H320.229C320.307 491.951 320.51 492.382 320.838 492.674C321.166 492.961 321.599 493.104 322.137 493.104C322.725 493.104 323.185 492.904 323.518 492.503C323.855 492.102 324.023 491.548 324.023 490.842C324.023 490.176 323.841 489.643 323.477 489.242C323.117 488.837 322.636 488.634 322.034 488.634C321.483 488.634 321.05 488.755 320.735 488.996L320.4 489.27L319.389 489.01Z" fill="black"/>
<path d="M311.222 555.499C311.782 554.811 312.511 554.467 313.409 554.467C314.972 554.467 315.761 555.349 315.774 557.112V562H314.51V557.105C314.505 556.572 314.382 556.178 314.141 555.923C313.904 555.668 313.532 555.54 313.026 555.54C312.616 555.54 312.256 555.649 311.946 555.868C311.636 556.087 311.395 556.374 311.222 556.729V562H309.957V551.5H311.222V555.499ZM323.451 556.436H317.75V555.335H323.451V556.436ZM323.451 559.272H317.75V558.179H323.451V559.272ZM327.061 556.408H328.011C328.608 556.399 329.077 556.242 329.419 555.937C329.761 555.631 329.932 555.219 329.932 554.699C329.932 553.533 329.351 552.949 328.188 552.949C327.642 552.949 327.204 553.106 326.876 553.421C326.552 553.731 326.391 554.143 326.391 554.658H325.126C325.126 553.87 325.413 553.216 325.987 552.696C326.566 552.172 327.3 551.91 328.188 551.91C329.127 551.91 329.863 552.159 330.396 552.655C330.93 553.152 331.196 553.842 331.196 554.727C331.196 555.16 331.055 555.579 330.772 555.984C330.494 556.39 330.114 556.693 329.631 556.894C330.178 557.067 330.599 557.354 330.896 557.755C331.196 558.156 331.347 558.646 331.347 559.225C331.347 560.118 331.055 560.826 330.472 561.351C329.888 561.875 329.13 562.137 328.195 562.137C327.261 562.137 326.5 561.884 325.912 561.378C325.329 560.872 325.037 560.204 325.037 559.375H326.309C326.309 559.899 326.479 560.318 326.821 560.633C327.163 560.947 327.621 561.104 328.195 561.104C328.806 561.104 329.273 560.945 329.597 560.626C329.92 560.307 330.082 559.849 330.082 559.252C330.082 558.673 329.904 558.229 329.549 557.919C329.193 557.609 328.681 557.45 328.011 557.44H327.061V556.408Z" fill="black"/>
<circle cx="186" cy="623" r="50" fill="#C4C4C4"/>
<path d="M164.271 627H163.182V619.775L160.996 620.578V619.594L164.102 618.428H164.271V627ZM170.102 626.232C170.488 626.232 170.826 626.115 171.115 625.881C171.404 625.646 171.564 625.354 171.596 625.002H172.621C172.602 625.365 172.477 625.711 172.246 626.039C172.016 626.367 171.707 626.629 171.32 626.824C170.938 627.02 170.531 627.117 170.102 627.117C169.238 627.117 168.551 626.83 168.039 626.256C167.531 625.678 167.277 624.889 167.277 623.889V623.707C167.277 623.09 167.391 622.541 167.617 622.061C167.844 621.58 168.168 621.207 168.59 620.941C169.016 620.676 169.518 620.543 170.096 620.543C170.807 620.543 171.396 620.756 171.865 621.182C172.338 621.607 172.59 622.16 172.621 622.84H171.596C171.564 622.43 171.408 622.094 171.127 621.832C170.85 621.566 170.506 621.434 170.096 621.434C169.545 621.434 169.117 621.633 168.812 622.031C168.512 622.426 168.361 622.998 168.361 623.748V623.953C168.361 624.684 168.512 625.246 168.812 625.641C169.113 626.035 169.543 626.232 170.102 626.232ZM181.258 622.207H182.072C182.584 622.199 182.986 622.064 183.279 621.803C183.572 621.541 183.719 621.188 183.719 620.742C183.719 619.742 183.221 619.242 182.225 619.242C181.756 619.242 181.381 619.377 181.1 619.646C180.822 619.912 180.684 620.266 180.684 620.707H179.6C179.6 620.031 179.846 619.471 180.338 619.025C180.834 618.576 181.463 618.352 182.225 618.352C183.029 618.352 183.66 618.564 184.117 618.99C184.574 619.416 184.803 620.008 184.803 620.766C184.803 621.137 184.682 621.496 184.439 621.844C184.201 622.191 183.875 622.451 183.461 622.623C183.93 622.771 184.291 623.018 184.545 623.361C184.803 623.705 184.932 624.125 184.932 624.621C184.932 625.387 184.682 625.994 184.182 626.443C183.682 626.893 183.031 627.117 182.23 627.117C181.43 627.117 180.777 626.9 180.273 626.467C179.773 626.033 179.523 625.461 179.523 624.75H180.613C180.613 625.199 180.76 625.559 181.053 625.828C181.346 626.098 181.738 626.232 182.23 626.232C182.754 626.232 183.154 626.096 183.432 625.822C183.709 625.549 183.848 625.156 183.848 624.645C183.848 624.148 183.695 623.768 183.391 623.502C183.086 623.236 182.646 623.1 182.072 623.092H181.258V622.207ZM187.551 620.66L187.58 621.363C188.045 620.816 188.672 620.543 189.461 620.543C190.348 620.543 190.951 620.883 191.271 621.562C191.482 621.258 191.756 621.012 192.092 620.824C192.432 620.637 192.832 620.543 193.293 620.543C194.684 620.543 195.391 621.279 195.414 622.752V627H194.33V622.816C194.33 622.363 194.227 622.025 194.02 621.803C193.812 621.576 193.465 621.463 192.977 621.463C192.574 621.463 192.24 621.584 191.975 621.826C191.709 622.064 191.555 622.387 191.512 622.793V627H190.422V622.846C190.422 621.924 189.971 621.463 189.068 621.463C188.357 621.463 187.871 621.766 187.609 622.371V627H186.525V620.66H187.551ZM202.287 623.818H199.428V622.934H202.287V623.818ZM207.625 626.08H211.668V627H206.494V618.469H207.625V626.08Z" fill="black"/>
<path d="M185.805 594H184.485L179.475 586.33V594H178.155V584.047H179.475L184.499 591.751V584.047H185.805V594ZM192.771 584.04V585.113H192.538C191.554 585.132 190.77 585.423 190.187 585.988C189.603 586.553 189.266 587.349 189.175 588.374C189.699 587.772 190.414 587.472 191.321 587.472C192.187 587.472 192.878 587.777 193.393 588.388C193.912 588.998 194.172 589.787 194.172 590.753C194.172 591.778 193.892 592.599 193.331 593.214C192.775 593.829 192.028 594.137 191.089 594.137C190.136 594.137 189.364 593.772 188.771 593.043C188.179 592.309 187.883 591.366 187.883 590.213V589.728C187.883 587.896 188.272 586.496 189.052 585.53C189.836 584.56 191 584.063 192.545 584.04H192.771ZM191.109 588.524C190.676 588.524 190.278 588.654 189.913 588.914C189.549 589.174 189.296 589.5 189.154 589.892V590.356C189.154 591.177 189.339 591.838 189.708 592.339C190.077 592.84 190.537 593.091 191.089 593.091C191.659 593.091 192.105 592.881 192.429 592.462C192.757 592.043 192.921 591.493 192.921 590.814C192.921 590.131 192.755 589.579 192.422 589.16C192.094 588.736 191.656 588.524 191.109 588.524Z" fill="black"/>
<path d="M180.222 655.499C180.782 654.811 181.511 654.467 182.409 654.467C183.972 654.467 184.761 655.349 184.774 657.112V662H183.51V657.105C183.505 656.572 183.382 656.178 183.141 655.923C182.904 655.668 182.532 655.54 182.026 655.54C181.616 655.54 181.256 655.649 180.946 655.868C180.636 656.087 180.395 656.374 180.222 656.729V662H178.957V651.5H180.222V655.499ZM192.451 656.436H186.75V655.335H192.451V656.436ZM192.451 659.272H186.75V658.179H192.451V659.272ZM199.561 658.657H200.941V659.689H199.561V662H198.289V659.689H193.757V658.944L198.214 652.047H199.561V658.657ZM195.192 658.657H198.289V653.776L198.139 654.05L195.192 658.657Z" fill="black"/>
<circle cx="317" cy="723" r="50" fill="#C4C4C4"/>
<path d="M297.299 727H291.709V726.221L294.662 722.939C295.1 722.443 295.4 722.041 295.564 721.732C295.732 721.42 295.816 721.098 295.816 720.766C295.816 720.32 295.682 719.955 295.412 719.67C295.143 719.385 294.783 719.242 294.334 719.242C293.795 719.242 293.375 719.396 293.074 719.705C292.777 720.01 292.629 720.436 292.629 720.982H291.545C291.545 720.197 291.797 719.562 292.301 719.078C292.809 718.594 293.486 718.352 294.334 718.352C295.127 718.352 295.754 718.561 296.215 718.979C296.676 719.393 296.906 719.945 296.906 720.637C296.906 721.477 296.371 722.477 295.301 723.637L293.016 726.115H297.299V727ZM301.102 726.232C301.488 726.232 301.826 726.115 302.115 725.881C302.404 725.646 302.564 725.354 302.596 725.002H303.621C303.602 725.365 303.477 725.711 303.246 726.039C303.016 726.367 302.707 726.629 302.32 726.824C301.938 727.02 301.531 727.117 301.102 727.117C300.238 727.117 299.551 726.83 299.039 726.256C298.531 725.678 298.277 724.889 298.277 723.889V723.707C298.277 723.09 298.391 722.541 298.617 722.061C298.844 721.58 299.168 721.207 299.59 720.941C300.016 720.676 300.518 720.543 301.096 720.543C301.807 720.543 302.396 720.756 302.865 721.182C303.338 721.607 303.59 722.16 303.621 722.84H302.596C302.564 722.43 302.408 722.094 302.127 721.832C301.85 721.566 301.506 721.434 301.096 721.434C300.545 721.434 300.117 721.633 299.812 722.031C299.512 722.426 299.361 722.998 299.361 723.748V723.953C299.361 724.684 299.512 725.246 299.812 725.641C300.113 726.035 300.543 726.232 301.102 726.232ZM316.271 727H310.682V726.221L313.635 722.939C314.072 722.443 314.373 722.041 314.537 721.732C314.705 721.42 314.789 721.098 314.789 720.766C314.789 720.32 314.654 719.955 314.385 719.67C314.115 719.385 313.756 719.242 313.307 719.242C312.768 719.242 312.348 719.396 312.047 719.705C311.75 720.01 311.602 720.436 311.602 720.982H310.518C310.518 720.197 310.77 719.562 311.273 719.078C311.781 718.594 312.459 718.352 313.307 718.352C314.1 718.352 314.727 718.561 315.188 718.979C315.648 719.393 315.879 719.945 315.879 720.637C315.879 721.477 315.344 722.477 314.273 723.637L311.988 726.115H316.271V727ZM318.551 720.66L318.58 721.363C319.045 720.816 319.672 720.543 320.461 720.543C321.348 720.543 321.951 720.883 322.271 721.562C322.482 721.258 322.756 721.012 323.092 720.824C323.432 720.637 323.832 720.543 324.293 720.543C325.684 720.543 326.391 721.279 326.414 722.752V727H325.33V722.816C325.33 722.363 325.227 722.025 325.02 721.803C324.812 721.576 324.465 721.463 323.977 721.463C323.574 721.463 323.24 721.584 322.975 721.826C322.709 722.064 322.555 722.387 322.512 722.793V727H321.422V722.846C321.422 721.924 320.971 721.463 320.068 721.463C319.357 721.463 318.871 721.766 318.609 722.371V727H317.525V720.66H318.551ZM333.287 723.818H330.428V722.934H333.287V723.818ZM340.623 723.549H338.619V727H337.488V718.469H340.312C341.273 718.469 342.012 718.688 342.527 719.125C343.047 719.562 343.307 720.199 343.307 721.035C343.307 721.566 343.162 722.029 342.873 722.424C342.588 722.818 342.189 723.113 341.678 723.309L343.682 726.93V727H342.475L340.623 723.549ZM338.619 722.629H340.348C340.906 722.629 341.35 722.484 341.678 722.195C342.01 721.906 342.176 721.52 342.176 721.035C342.176 720.508 342.018 720.104 341.701 719.822C341.389 719.541 340.936 719.398 340.342 719.395H338.619V722.629Z" fill="black"/>
<path d="M316.805 694H315.485L310.475 686.33V694H309.155V684.047H310.475L315.499 691.751V684.047H316.805V694ZM325.233 684.758L321.111 694H319.785L323.894 685.086H318.507V684.047H325.233V684.758Z" fill="black"/>
<path d="M311.222 755.499C311.782 754.811 312.511 754.467 313.409 754.467C314.972 754.467 315.761 755.349 315.774 757.112V762H314.51V757.105C314.505 756.572 314.382 756.178 314.141 755.923C313.904 755.668 313.532 755.54 313.026 755.54C312.616 755.54 312.256 755.649 311.946 755.868C311.636 756.087 311.395 756.374 311.222 756.729V762H309.957V751.5H311.222V755.499ZM323.451 756.436H317.75V755.335H323.451V756.436ZM323.451 759.272H317.75V758.179H323.451V759.272ZM331.743 762H325.222V761.091L328.667 757.263C329.177 756.684 329.528 756.215 329.72 755.854C329.916 755.49 330.014 755.114 330.014 754.727C330.014 754.207 329.856 753.781 329.542 753.448C329.228 753.116 328.808 752.949 328.284 752.949C327.655 752.949 327.165 753.129 326.814 753.489C326.468 753.845 326.295 754.341 326.295 754.979H325.03C325.03 754.063 325.324 753.323 325.912 752.758C326.505 752.193 327.295 751.91 328.284 751.91C329.209 751.91 329.941 752.154 330.479 752.642C331.016 753.125 331.285 753.77 331.285 754.576C331.285 755.556 330.661 756.723 329.412 758.076L326.746 760.968H331.743V762Z" fill="black"/>
<circle cx="186" cy="823" r="50" fill="#C4C4C4"/>
<path d="M166.299 827H160.709V826.221L163.662 822.939C164.1 822.443 164.4 822.041 164.564 821.732C164.732 821.42 164.816 821.098 164.816 820.766C164.816 820.32 164.682 819.955 164.412 819.67C164.143 819.385 163.783 819.242 163.334 819.242C162.795 819.242 162.375 819.396 162.074 819.705C161.777 820.01 161.629 820.436 161.629 820.982H160.545C160.545 820.197 160.797 819.562 161.301 819.078C161.809 818.594 162.486 818.352 163.334 818.352C164.127 818.352 164.754 818.561 165.215 818.979C165.676 819.393 165.906 819.945 165.906 820.637C165.906 821.477 165.371 822.477 164.301 823.637L162.016 826.115H166.299V827ZM170.102 826.232C170.488 826.232 170.826 826.115 171.115 825.881C171.404 825.646 171.564 825.354 171.596 825.002H172.621C172.602 825.365 172.477 825.711 172.246 826.039C172.016 826.367 171.707 826.629 171.32 826.824C170.938 827.02 170.531 827.117 170.102 827.117C169.238 827.117 168.551 826.83 168.039 826.256C167.531 825.678 167.277 824.889 167.277 823.889V823.707C167.277 823.09 167.391 822.541 167.617 822.061C167.844 821.58 168.168 821.207 168.59 820.941C169.016 820.676 169.518 820.543 170.096 820.543C170.807 820.543 171.396 820.756 171.865 821.182C172.338 821.607 172.59 822.16 172.621 822.84H171.596C171.564 822.43 171.408 822.094 171.127 821.832C170.85 821.566 170.506 821.434 170.096 821.434C169.545 821.434 169.117 821.633 168.812 822.031C168.512 822.426 168.361 822.998 168.361 823.748V823.953C168.361 824.684 168.512 825.246 168.812 825.641C169.113 826.035 169.543 826.232 170.102 826.232ZM185.271 827H179.682V826.221L182.635 822.939C183.072 822.443 183.373 822.041 183.537 821.732C183.705 821.42 183.789 821.098 183.789 820.766C183.789 820.32 183.654 819.955 183.385 819.67C183.115 819.385 182.756 819.242 182.307 819.242C181.768 819.242 181.348 819.396 181.047 819.705C180.75 820.01 180.602 820.436 180.602 820.982H179.518C179.518 820.197 179.77 819.562 180.273 819.078C180.781 818.594 181.459 818.352 182.307 818.352C183.1 818.352 183.727 818.561 184.188 818.979C184.648 819.393 184.879 819.945 184.879 820.637C184.879 821.477 184.344 822.477 183.273 823.637L180.988 826.115H185.271V827ZM187.551 820.66L187.58 821.363C188.045 820.816 188.672 820.543 189.461 820.543C190.348 820.543 190.951 820.883 191.271 821.562C191.482 821.258 191.756 821.012 192.092 820.824C192.432 820.637 192.832 820.543 193.293 820.543C194.684 820.543 195.391 821.279 195.414 822.752V827H194.33V822.816C194.33 822.363 194.227 822.025 194.02 821.803C193.812 821.576 193.465 821.463 192.977 821.463C192.574 821.463 192.24 821.584 191.975 821.826C191.709 822.064 191.555 822.387 191.512 822.793V827H190.422V822.846C190.422 821.924 189.971 821.463 189.068 821.463C188.357 821.463 187.871 821.766 187.609 822.371V827H186.525V820.66H187.551ZM202.287 823.818H199.428V822.934H202.287V823.818ZM207.625 826.08H211.668V827H206.494V818.469H207.625V826.08Z" fill="black"/>
<path d="M185.805 794H184.485L179.475 786.33V794H178.155V784.047H179.475L184.499 791.751V784.047H185.805V794ZM193.844 786.645C193.844 787.141 193.712 787.583 193.447 787.971C193.188 788.358 192.834 788.661 192.388 788.88C192.907 789.103 193.317 789.429 193.618 789.857C193.924 790.286 194.076 790.771 194.076 791.313C194.076 792.175 193.785 792.861 193.201 793.371C192.622 793.882 191.859 794.137 190.911 794.137C189.954 794.137 189.186 793.882 188.607 793.371C188.033 792.856 187.746 792.17 187.746 791.313C187.746 790.776 187.892 790.29 188.184 789.857C188.48 789.424 188.888 789.096 189.407 788.873C188.965 788.654 188.617 788.351 188.361 787.964C188.106 787.576 187.979 787.137 187.979 786.645C187.979 785.806 188.247 785.141 188.785 784.648C189.323 784.156 190.032 783.91 190.911 783.91C191.786 783.91 192.493 784.156 193.03 784.648C193.573 785.141 193.844 785.806 193.844 786.645ZM192.812 791.286C192.812 790.73 192.634 790.277 192.278 789.926C191.927 789.575 191.467 789.399 190.897 789.399C190.328 789.399 189.87 789.573 189.523 789.919C189.182 790.265 189.011 790.721 189.011 791.286C189.011 791.851 189.177 792.296 189.51 792.619C189.847 792.943 190.314 793.104 190.911 793.104C191.504 793.104 191.968 792.943 192.306 792.619C192.643 792.291 192.812 791.847 192.812 791.286ZM190.911 784.949C190.414 784.949 190.011 785.104 189.701 785.414C189.396 785.719 189.243 786.136 189.243 786.665C189.243 787.171 189.394 787.581 189.694 787.896C190 788.205 190.405 788.36 190.911 788.36C191.417 788.36 191.82 788.205 192.121 787.896C192.426 787.581 192.579 787.171 192.579 786.665C192.579 786.159 192.422 785.747 192.107 785.428C191.793 785.109 191.394 784.949 190.911 784.949Z" fill="black"/>
<path d="M180.222 855.499C180.782 854.811 181.511 854.467 182.409 854.467C183.972 854.467 184.761 855.349 184.774 857.112V862H183.51V857.105C183.505 856.572 183.382 856.178 183.141 855.923C182.904 855.668 182.532 855.54 182.026 855.54C181.616 855.54 181.256 855.649 180.946 855.868C180.636 856.087 180.395 856.374 180.222 856.729V862H178.957V851.5H180.222V855.499ZM192.451 856.436H186.75V855.335H192.451V856.436ZM192.451 859.272H186.75V858.179H192.451V859.272ZM199.561 858.657H200.941V859.689H199.561V862H198.289V859.689H193.757V858.944L198.214 852.047H199.561V858.657ZM195.192 858.657H198.289V853.776L198.139 854.05L195.192 858.657Z" fill="black"/>
<circle cx="317" cy="923" r="50" fill="#C4C4C4"/>
<path d="M295.271 927H294.182V919.775L291.996 920.578V919.594L295.102 918.428H295.271V927ZM301.102 926.232C301.488 926.232 301.826 926.115 302.115 925.881C302.404 925.646 302.564 925.354 302.596 925.002H303.621C303.602 925.365 303.477 925.711 303.246 926.039C303.016 926.367 302.707 926.629 302.32 926.824C301.938 927.02 301.531 927.117 301.102 927.117C300.238 927.117 299.551 926.83 299.039 926.256C298.531 925.678 298.277 924.889 298.277 923.889V923.707C298.277 923.09 298.391 922.541 298.617 922.061C298.844 921.58 299.168 921.207 299.59 920.941C300.016 920.676 300.518 920.543 301.096 920.543C301.807 920.543 302.396 920.756 302.865 921.182C303.338 921.607 303.59 922.16 303.621 922.84H302.596C302.564 922.43 302.408 922.094 302.127 921.832C301.85 921.566 301.506 921.434 301.096 921.434C300.545 921.434 300.117 921.633 299.812 922.031C299.512 922.426 299.361 922.998 299.361 923.748V923.953C299.361 924.684 299.512 925.246 299.812 925.641C300.113 926.035 300.543 926.232 301.102 926.232ZM312.258 922.207H313.072C313.584 922.199 313.986 922.064 314.279 921.803C314.572 921.541 314.719 921.188 314.719 920.742C314.719 919.742 314.221 919.242 313.225 919.242C312.756 919.242 312.381 919.377 312.1 919.646C311.822 919.912 311.684 920.266 311.684 920.707H310.6C310.6 920.031 310.846 919.471 311.338 919.025C311.834 918.576 312.463 918.352 313.225 918.352C314.029 918.352 314.66 918.564 315.117 918.99C315.574 919.416 315.803 920.008 315.803 920.766C315.803 921.137 315.682 921.496 315.439 921.844C315.201 922.191 314.875 922.451 314.461 922.623C314.93 922.771 315.291 923.018 315.545 923.361C315.803 923.705 315.932 924.125 315.932 924.621C315.932 925.387 315.682 925.994 315.182 926.443C314.682 926.893 314.031 927.117 313.23 927.117C312.43 927.117 311.777 926.9 311.273 926.467C310.773 926.033 310.523 925.461 310.523 924.75H311.613C311.613 925.199 311.76 925.559 312.053 925.828C312.346 926.098 312.738 926.232 313.23 926.232C313.754 926.232 314.154 926.096 314.432 925.822C314.709 925.549 314.848 925.156 314.848 924.645C314.848 924.148 314.695 923.768 314.391 923.502C314.086 923.236 313.646 923.1 313.072 923.092H312.258V922.207ZM318.551 920.66L318.58 921.363C319.045 920.816 319.672 920.543 320.461 920.543C321.348 920.543 321.951 920.883 322.271 921.562C322.482 921.258 322.756 921.012 323.092 920.824C323.432 920.637 323.832 920.543 324.293 920.543C325.684 920.543 326.391 921.279 326.414 922.752V927H325.33V922.816C325.33 922.363 325.227 922.025 325.02 921.803C324.812 921.576 324.465 921.463 323.977 921.463C323.574 921.463 323.24 921.584 322.975 921.826C322.709 922.064 322.555 922.387 322.512 922.793V927H321.422V922.846C321.422 921.924 320.971 921.463 320.068 921.463C319.357 921.463 318.871 921.766 318.609 922.371V927H317.525V920.66H318.551ZM333.287 923.818H330.428V922.934H333.287V923.818ZM340.623 923.549H338.619V927H337.488V918.469H340.312C341.273 918.469 342.012 918.688 342.527 919.125C343.047 919.562 343.307 920.199 343.307 921.035C343.307 921.566 343.162 922.029 342.873 922.424C342.588 922.818 342.189 923.113 341.678 923.309L343.682 926.93V927H342.475L340.623 923.549ZM338.619 922.629H340.348C340.906 922.629 341.35 922.484 341.678 922.195C342.01 921.906 342.176 921.52 342.176 921.035C342.176 920.508 342.018 920.104 341.701 919.822C341.389 919.541 340.936 919.398 340.342 919.395H338.619V922.629Z" fill="black"/>
<path d="M316.805 894H315.485L310.475 886.33V894H309.155V884.047H310.475L315.499 891.751V884.047H316.805V894ZM323.654 889.625C323.39 889.939 323.073 890.192 322.704 890.384C322.34 890.575 321.938 890.671 321.501 890.671C320.927 890.671 320.425 890.53 319.997 890.247C319.573 889.965 319.245 889.568 319.013 889.058C318.78 888.543 318.664 887.975 318.664 887.355C318.664 886.69 318.789 886.091 319.04 885.558C319.295 885.024 319.655 884.617 320.12 884.334C320.585 884.051 321.127 883.91 321.747 883.91C322.731 883.91 323.506 884.279 324.071 885.018C324.641 885.751 324.926 886.754 324.926 888.025V888.395C324.926 890.331 324.543 891.746 323.777 892.64C323.012 893.528 321.856 893.984 320.312 894.007H320.065V892.94H320.332C321.376 892.922 322.178 892.651 322.738 892.127C323.299 891.598 323.604 890.764 323.654 889.625ZM321.706 889.625C322.13 889.625 322.52 889.495 322.875 889.235C323.235 888.976 323.497 888.654 323.661 888.271V887.766C323.661 886.936 323.481 886.262 323.121 885.742C322.761 885.223 322.305 884.963 321.754 884.963C321.198 884.963 320.751 885.177 320.414 885.605C320.077 886.029 319.908 886.59 319.908 887.287C319.908 887.966 320.07 888.527 320.394 888.969C320.722 889.406 321.159 889.625 321.706 889.625Z" fill="black"/>
<path d="M311.222 955.499C311.782 954.811 312.511 954.467 313.409 954.467C314.972 954.467 315.761 955.349 315.774 957.112V962H314.51V957.105C314.505 956.572 314.382 956.178 314.141 955.923C313.904 955.668 313.532 955.54 313.026 955.54C312.616 955.54 312.256 955.649 311.946 955.868C311.636 956.087 311.395 956.374 311.222 956.729V962H309.957V951.5H311.222V955.499ZM323.451 956.436H317.75V955.335H323.451V956.436ZM323.451 959.272H317.75V958.179H323.451V959.272ZM331.743 962H325.222V961.091L328.667 957.263C329.177 956.684 329.528 956.215 329.72 955.854C329.916 955.49 330.014 955.114 330.014 954.727C330.014 954.207 329.856 953.781 329.542 953.448C329.228 953.116 328.808 952.949 328.284 952.949C327.655 952.949 327.165 953.129 326.814 953.489C326.468 953.845 326.295 954.341 326.295 954.979H325.03C325.03 954.063 325.324 953.323 325.912 952.758C326.505 952.193 327.295 951.91 328.284 951.91C329.209 951.91 329.941 952.154 330.479 952.642C331.016 953.125 331.285 953.77 331.285 954.576C331.285 955.556 330.661 956.723 329.412 958.076L326.746 960.968H331.743V962Z" fill="black"/>
<path d="M343.501 1273.19C343.481 1273.47 343.687 1273.71 343.963 1273.73L348.45 1274.07C348.725 1274.09 348.965 1273.88 348.986 1273.6C349.007 1273.33 348.8 1273.09 348.525 1273.07L344.536 1272.77L344.836 1268.78C344.856 1268.5 344.65 1268.26 344.374 1268.24C344.099 1268.22 343.859 1268.43 343.838 1268.71L343.501 1273.19ZM396.25 1227.62L343.674 1272.85L344.326 1273.61L396.902 1228.38L396.25 1227.62Z" fill="black"/>
<path d="M295.947 1273.75C296.218 1273.69 296.393 1273.43 296.338 1273.16L295.439 1268.75C295.384 1268.48 295.12 1268.3 294.849 1268.36C294.578 1268.41 294.404 1268.68 294.459 1268.95L295.258 1272.87L291.338 1273.67C291.068 1273.72 290.893 1273.99 290.948 1274.26C291.003 1274.53 291.268 1274.7 291.538 1274.65L295.947 1273.75ZM237.724 1235.42L295.572 1273.67L296.123 1272.84L238.276 1234.58L237.724 1235.42Z" fill="black"/>
<circle cx="317" cy="1323" r="50" fill="#C4C4C4"/>
<path d="M293.285 1322.21H294.1C294.611 1322.2 295.014 1322.06 295.307 1321.8C295.6 1321.54 295.746 1321.19 295.746 1320.74C295.746 1319.74 295.248 1319.24 294.252 1319.24C293.783 1319.24 293.408 1319.38 293.127 1319.65C292.85 1319.91 292.711 1320.27 292.711 1320.71H291.627C291.627 1320.03 291.873 1319.47 292.365 1319.03C292.861 1318.58 293.49 1318.35 294.252 1318.35C295.057 1318.35 295.688 1318.56 296.145 1318.99C296.602 1319.42 296.83 1320.01 296.83 1320.77C296.83 1321.14 296.709 1321.5 296.467 1321.84C296.229 1322.19 295.902 1322.45 295.488 1322.62C295.957 1322.77 296.318 1323.02 296.572 1323.36C296.83 1323.71 296.959 1324.12 296.959 1324.62C296.959 1325.39 296.709 1325.99 296.209 1326.44C295.709 1326.89 295.059 1327.12 294.258 1327.12C293.457 1327.12 292.805 1326.9 292.301 1326.47C291.801 1326.03 291.551 1325.46 291.551 1324.75H292.641C292.641 1325.2 292.787 1325.56 293.08 1325.83C293.373 1326.1 293.766 1326.23 294.258 1326.23C294.781 1326.23 295.182 1326.1 295.459 1325.82C295.736 1325.55 295.875 1325.16 295.875 1324.64C295.875 1324.15 295.723 1323.77 295.418 1323.5C295.113 1323.24 294.674 1323.1 294.1 1323.09H293.285V1322.21ZM301.102 1326.23C301.488 1326.23 301.826 1326.12 302.115 1325.88C302.404 1325.65 302.564 1325.35 302.596 1325H303.621C303.602 1325.37 303.477 1325.71 303.246 1326.04C303.016 1326.37 302.707 1326.63 302.32 1326.82C301.938 1327.02 301.531 1327.12 301.102 1327.12C300.238 1327.12 299.551 1326.83 299.039 1326.26C298.531 1325.68 298.277 1324.89 298.277 1323.89V1323.71C298.277 1323.09 298.391 1322.54 298.617 1322.06C298.844 1321.58 299.168 1321.21 299.59 1320.94C300.016 1320.68 300.518 1320.54 301.096 1320.54C301.807 1320.54 302.396 1320.76 302.865 1321.18C303.338 1321.61 303.59 1322.16 303.621 1322.84H302.596C302.564 1322.43 302.408 1322.09 302.127 1321.83C301.85 1321.57 301.506 1321.43 301.096 1321.43C300.545 1321.43 300.117 1321.63 299.812 1322.03C299.512 1322.43 299.361 1323 299.361 1323.75V1323.95C299.361 1324.68 299.512 1325.25 299.812 1325.64C300.113 1326.04 300.543 1326.23 301.102 1326.23ZM312.258 1322.21H313.072C313.584 1322.2 313.986 1322.06 314.279 1321.8C314.572 1321.54 314.719 1321.19 314.719 1320.74C314.719 1319.74 314.221 1319.24 313.225 1319.24C312.756 1319.24 312.381 1319.38 312.1 1319.65C311.822 1319.91 311.684 1320.27 311.684 1320.71H310.6C310.6 1320.03 310.846 1319.47 311.338 1319.03C311.834 1318.58 312.463 1318.35 313.225 1318.35C314.029 1318.35 314.66 1318.56 315.117 1318.99C315.574 1319.42 315.803 1320.01 315.803 1320.77C315.803 1321.14 315.682 1321.5 315.439 1321.84C315.201 1322.19 314.875 1322.45 314.461 1322.62C314.93 1322.77 315.291 1323.02 315.545 1323.36C315.803 1323.71 315.932 1324.12 315.932 1324.62C315.932 1325.39 315.682 1325.99 315.182 1326.44C314.682 1326.89 314.031 1327.12 313.23 1327.12C312.43 1327.12 311.777 1326.9 311.273 1326.47C310.773 1326.03 310.523 1325.46 310.523 1324.75H311.613C311.613 1325.2 311.76 1325.56 312.053 1325.83C312.346 1326.1 312.738 1326.23 313.23 1326.23C313.754 1326.23 314.154 1326.1 314.432 1325.82C314.709 1325.55 314.848 1325.16 314.848 1324.64C314.848 1324.15 314.695 1323.77 314.391 1323.5C314.086 1323.24 313.646 1323.1 313.072 1323.09H312.258V1322.21ZM318.551 1320.66L318.58 1321.36C319.045 1320.82 319.672 1320.54 320.461 1320.54C321.348 1320.54 321.951 1320.88 322.271 1321.56C322.482 1321.26 322.756 1321.01 323.092 1320.82C323.432 1320.64 323.832 1320.54 324.293 1320.54C325.684 1320.54 326.391 1321.28 326.414 1322.75V1327H325.33V1322.82C325.33 1322.36 325.227 1322.03 325.02 1321.8C324.812 1321.58 324.465 1321.46 323.977 1321.46C323.574 1321.46 323.24 1321.58 322.975 1321.83C322.709 1322.06 322.555 1322.39 322.512 1322.79V1327H321.422V1322.85C321.422 1321.92 320.971 1321.46 320.068 1321.46C319.357 1321.46 318.871 1321.77 318.609 1322.37V1327H317.525V1320.66H318.551ZM333.287 1323.82H330.428V1322.93H333.287V1323.82ZM340.623 1323.55H338.619V1327H337.488V1318.47H340.312C341.273 1318.47 342.012 1318.69 342.527 1319.12C343.047 1319.56 343.307 1320.2 343.307 1321.04C343.307 1321.57 343.162 1322.03 342.873 1322.42C342.588 1322.82 342.189 1323.11 341.678 1323.31L343.682 1326.93V1327H342.475L340.623 1323.55ZM338.619 1322.63H340.348C340.906 1322.63 341.35 1322.48 341.678 1322.2C342.01 1321.91 342.176 1321.52 342.176 1321.04C342.176 1320.51 342.018 1320.1 341.701 1319.82C341.389 1319.54 340.936 1319.4 340.342 1319.39H338.619V1322.63Z" fill="black"/>
<path d="M313.805 1294H312.485L307.475 1286.33V1294H306.155V1284.05H307.475L312.499 1291.75V1284.05H313.805V1294ZM319.964 1294H318.692V1285.57L316.143 1286.51V1285.36L319.766 1284H319.964V1294ZM329.008 1290.66H330.389V1291.69H329.008V1294H327.736V1291.69H323.204V1290.94L327.661 1284.05H329.008V1290.66ZM324.64 1290.66H327.736V1285.78L327.586 1286.05L324.64 1290.66Z" fill="black"/>
<path d="M311.222 1355.5C311.782 1354.81 312.511 1354.47 313.409 1354.47C314.972 1354.47 315.761 1355.35 315.774 1357.11V1362H314.51V1357.11C314.505 1356.57 314.382 1356.18 314.141 1355.92C313.904 1355.67 313.532 1355.54 313.026 1355.54C312.616 1355.54 312.256 1355.65 311.946 1355.87C311.636 1356.09 311.395 1356.37 311.222 1356.73V1362H309.957V1351.5H311.222V1355.5ZM323.451 1356.44H317.75V1355.33H323.451V1356.44ZM323.451 1359.27H317.75V1358.18H323.451V1359.27ZM331.463 1357.75C331.463 1359.24 331.21 1360.34 330.704 1361.06C330.198 1361.78 329.408 1362.14 328.332 1362.14C327.27 1362.14 326.484 1361.79 325.974 1361.08C325.463 1360.38 325.199 1359.32 325.181 1357.93V1356.24C325.181 1354.77 325.434 1353.69 325.939 1352.98C326.445 1352.27 327.238 1351.91 328.318 1351.91C329.389 1351.91 330.178 1352.25 330.684 1352.94C331.189 1353.63 331.449 1354.68 331.463 1356.11V1357.75ZM330.198 1356.03C330.198 1354.95 330.048 1354.18 329.747 1353.69C329.446 1353.2 328.97 1352.95 328.318 1352.95C327.671 1352.95 327.2 1353.19 326.903 1353.68C326.607 1354.17 326.454 1354.92 326.445 1355.93V1357.95C326.445 1359.03 326.6 1359.82 326.91 1360.34C327.225 1360.85 327.699 1361.1 328.332 1361.1C328.956 1361.1 329.419 1360.86 329.72 1360.38C330.025 1359.9 330.185 1359.14 330.198 1358.1V1356.03Z" fill="black"/>
<circle cx="186" cy="1023" r="50" fill="#C4C4C4"/>
<path d="M162.285 1022.21H163.1C163.611 1022.2 164.014 1022.06 164.307 1021.8C164.6 1021.54 164.746 1021.19 164.746 1020.74C164.746 1019.74 164.248 1019.24 163.252 1019.24C162.783 1019.24 162.408 1019.38 162.127 1019.65C161.85 1019.91 161.711 1020.27 161.711 1020.71H160.627C160.627 1020.03 160.873 1019.47 161.365 1019.03C161.861 1018.58 162.49 1018.35 163.252 1018.35C164.057 1018.35 164.688 1018.56 165.145 1018.99C165.602 1019.42 165.83 1020.01 165.83 1020.77C165.83 1021.14 165.709 1021.5 165.467 1021.84C165.229 1022.19 164.902 1022.45 164.488 1022.62C164.957 1022.77 165.318 1023.02 165.572 1023.36C165.83 1023.71 165.959 1024.12 165.959 1024.62C165.959 1025.39 165.709 1025.99 165.209 1026.44C164.709 1026.89 164.059 1027.12 163.258 1027.12C162.457 1027.12 161.805 1026.9 161.301 1026.47C160.801 1026.03 160.551 1025.46 160.551 1024.75H161.641C161.641 1025.2 161.787 1025.56 162.08 1025.83C162.373 1026.1 162.766 1026.23 163.258 1026.23C163.781 1026.23 164.182 1026.1 164.459 1025.82C164.736 1025.55 164.875 1025.16 164.875 1024.64C164.875 1024.15 164.723 1023.77 164.418 1023.5C164.113 1023.24 163.674 1023.1 163.1 1023.09H162.285V1022.21ZM170.102 1026.23C170.488 1026.23 170.826 1026.12 171.115 1025.88C171.404 1025.65 171.564 1025.35 171.596 1025H172.621C172.602 1025.37 172.477 1025.71 172.246 1026.04C172.016 1026.37 171.707 1026.63 171.32 1026.82C170.938 1027.02 170.531 1027.12 170.102 1027.12C169.238 1027.12 168.551 1026.83 168.039 1026.26C167.531 1025.68 167.277 1024.89 167.277 1023.89V1023.71C167.277 1023.09 167.391 1022.54 167.617 1022.06C167.844 1021.58 168.168 1021.21 168.59 1020.94C169.016 1020.68 169.518 1020.54 170.096 1020.54C170.807 1020.54 171.396 1020.76 171.865 1021.18C172.338 1021.61 172.59 1022.16 172.621 1022.84H171.596C171.564 1022.43 171.408 1022.09 171.127 1021.83C170.85 1021.57 170.506 1021.43 170.096 1021.43C169.545 1021.43 169.117 1021.63 168.812 1022.03C168.512 1022.43 168.361 1023 168.361 1023.75V1023.95C168.361 1024.68 168.512 1025.25 168.812 1025.64C169.113 1026.04 169.543 1026.23 170.102 1026.23ZM185.031 1023.36C185.031 1024.63 184.814 1025.57 184.381 1026.19C183.947 1026.81 183.27 1027.12 182.348 1027.12C181.438 1027.12 180.764 1026.82 180.326 1026.21C179.889 1025.61 179.662 1024.71 179.646 1023.51V1022.06C179.646 1020.81 179.863 1019.88 180.297 1019.27C180.73 1018.66 181.41 1018.35 182.336 1018.35C183.254 1018.35 183.93 1018.65 184.363 1019.24C184.797 1019.82 185.02 1020.73 185.031 1021.96V1023.36ZM183.947 1021.88C183.947 1020.96 183.818 1020.29 183.561 1019.88C183.303 1019.45 182.895 1019.24 182.336 1019.24C181.781 1019.24 181.377 1019.45 181.123 1019.87C180.869 1020.29 180.738 1020.93 180.73 1021.8V1023.53C180.73 1024.45 180.863 1025.13 181.129 1025.58C181.398 1026.01 181.805 1026.23 182.348 1026.23C182.883 1026.23 183.279 1026.03 183.537 1025.61C183.799 1025.2 183.936 1024.54 183.947 1023.65V1021.88ZM187.551 1020.66L187.58 1021.36C188.045 1020.82 188.672 1020.54 189.461 1020.54C190.348 1020.54 190.951 1020.88 191.271 1021.56C191.482 1021.26 191.756 1021.01 192.092 1020.82C192.432 1020.64 192.832 1020.54 193.293 1020.54C194.684 1020.54 195.391 1021.28 195.414 1022.75V1027H194.33V1022.82C194.33 1022.36 194.227 1022.03 194.02 1021.8C193.812 1021.58 193.465 1021.46 192.977 1021.46C192.574 1021.46 192.24 1021.58 191.975 1021.83C191.709 1022.06 191.555 1022.39 191.512 1022.79V1027H190.422V1022.85C190.422 1021.92 189.971 1021.46 189.068 1021.46C188.357 1021.46 187.871 1021.77 187.609 1022.37V1027H186.525V1020.66H187.551ZM202.287 1023.82H199.428V1022.93H202.287V1023.82ZM207.625 1026.08H211.668V1027H206.494V1018.47H207.625V1026.08Z" fill="black"/>
<path d="M181.805 994H180.485L175.475 986.33V994H174.155V984.047H175.475L180.499 991.751V984.047H181.805V994ZM187.964 994H186.692V985.571L184.143 986.508V985.359L187.766 983.999H187.964V994ZM197.91 989.755C197.91 991.236 197.657 992.337 197.151 993.057C196.646 993.777 195.855 994.137 194.779 994.137C193.717 994.137 192.931 993.786 192.421 993.084C191.91 992.378 191.646 991.325 191.628 989.926V988.237C191.628 986.774 191.881 985.688 192.387 984.977C192.893 984.266 193.686 983.91 194.766 983.91C195.837 983.91 196.625 984.254 197.131 984.942C197.637 985.626 197.896 986.683 197.91 988.114V989.755ZM196.646 988.025C196.646 986.954 196.495 986.175 196.194 985.688C195.894 985.195 195.417 984.949 194.766 984.949C194.118 984.949 193.647 985.193 193.351 985.681C193.054 986.168 192.902 986.918 192.893 987.93V989.953C192.893 991.029 193.048 991.824 193.357 992.339C193.672 992.849 194.146 993.104 194.779 993.104C195.404 993.104 195.866 992.863 196.167 992.38C196.472 991.897 196.632 991.136 196.646 990.097V988.025Z" fill="black"/>
<path d="M180.222 1055.5C180.782 1054.81 181.511 1054.47 182.409 1054.47C183.972 1054.47 184.761 1055.35 184.774 1057.11V1062H183.51V1057.11C183.505 1056.57 183.382 1056.18 183.141 1055.92C182.904 1055.67 182.532 1055.54 182.026 1055.54C181.616 1055.54 181.256 1055.65 180.946 1055.87C180.636 1056.09 180.395 1056.37 180.222 1056.73V1062H178.957V1051.5H180.222V1055.5ZM192.451 1056.44H186.75V1055.33H192.451V1056.44ZM192.451 1059.27H186.75V1058.18H192.451V1059.27ZM196.061 1056.41H197.011C197.608 1056.4 198.077 1056.24 198.419 1055.94C198.761 1055.63 198.932 1055.22 198.932 1054.7C198.932 1053.53 198.351 1052.95 197.188 1052.95C196.642 1052.95 196.204 1053.11 195.876 1053.42C195.552 1053.73 195.391 1054.14 195.391 1054.66H194.126C194.126 1053.87 194.413 1053.22 194.987 1052.7C195.566 1052.17 196.3 1051.91 197.188 1051.91C198.127 1051.91 198.863 1052.16 199.396 1052.66C199.93 1053.15 200.196 1053.84 200.196 1054.73C200.196 1055.16 200.055 1055.58 199.772 1055.98C199.494 1056.39 199.114 1056.69 198.631 1056.89C199.178 1057.07 199.599 1057.35 199.896 1057.75C200.196 1058.16 200.347 1058.65 200.347 1059.22C200.347 1060.12 200.055 1060.83 199.472 1061.35C198.888 1061.87 198.13 1062.14 197.195 1062.14C196.261 1062.14 195.5 1061.88 194.912 1061.38C194.329 1060.87 194.037 1060.2 194.037 1059.38H195.309C195.309 1059.9 195.479 1060.32 195.821 1060.63C196.163 1060.95 196.621 1061.1 197.195 1061.1C197.806 1061.1 198.273 1060.94 198.597 1060.63C198.92 1060.31 199.082 1059.85 199.082 1059.25C199.082 1058.67 198.904 1058.23 198.549 1057.92C198.193 1057.61 197.681 1057.45 197.011 1057.44H196.061V1056.41Z" fill="black"/>
<circle cx="317" cy="1123" r="50" fill="#C4C4C4"/>
<path d="M297.299 1127H291.709V1126.22L294.662 1122.94C295.1 1122.44 295.4 1122.04 295.564 1121.73C295.732 1121.42 295.816 1121.1 295.816 1120.77C295.816 1120.32 295.682 1119.96 295.412 1119.67C295.143 1119.38 294.783 1119.24 294.334 1119.24C293.795 1119.24 293.375 1119.4 293.074 1119.71C292.777 1120.01 292.629 1120.44 292.629 1120.98H291.545C291.545 1120.2 291.797 1119.56 292.301 1119.08C292.809 1118.59 293.486 1118.35 294.334 1118.35C295.127 1118.35 295.754 1118.56 296.215 1118.98C296.676 1119.39 296.906 1119.95 296.906 1120.64C296.906 1121.48 296.371 1122.48 295.301 1123.64L293.016 1126.12H297.299V1127ZM301.102 1126.23C301.488 1126.23 301.826 1126.12 302.115 1125.88C302.404 1125.65 302.564 1125.35 302.596 1125H303.621C303.602 1125.37 303.477 1125.71 303.246 1126.04C303.016 1126.37 302.707 1126.63 302.32 1126.82C301.938 1127.02 301.531 1127.12 301.102 1127.12C300.238 1127.12 299.551 1126.83 299.039 1126.26C298.531 1125.68 298.277 1124.89 298.277 1123.89V1123.71C298.277 1123.09 298.391 1122.54 298.617 1122.06C298.844 1121.58 299.168 1121.21 299.59 1120.94C300.016 1120.68 300.518 1120.54 301.096 1120.54C301.807 1120.54 302.396 1120.76 302.865 1121.18C303.338 1121.61 303.59 1122.16 303.621 1122.84H302.596C302.564 1122.43 302.408 1122.09 302.127 1121.83C301.85 1121.57 301.506 1121.43 301.096 1121.43C300.545 1121.43 300.117 1121.63 299.812 1122.03C299.512 1122.43 299.361 1123 299.361 1123.75V1123.95C299.361 1124.68 299.512 1125.25 299.812 1125.64C300.113 1126.04 300.543 1126.23 301.102 1126.23ZM312.258 1122.21H313.072C313.584 1122.2 313.986 1122.06 314.279 1121.8C314.572 1121.54 314.719 1121.19 314.719 1120.74C314.719 1119.74 314.221 1119.24 313.225 1119.24C312.756 1119.24 312.381 1119.38 312.1 1119.65C311.822 1119.91 311.684 1120.27 311.684 1120.71H310.6C310.6 1120.03 310.846 1119.47 311.338 1119.03C311.834 1118.58 312.463 1118.35 313.225 1118.35C314.029 1118.35 314.66 1118.56 315.117 1118.99C315.574 1119.42 315.803 1120.01 315.803 1120.77C315.803 1121.14 315.682 1121.5 315.439 1121.84C315.201 1122.19 314.875 1122.45 314.461 1122.62C314.93 1122.77 315.291 1123.02 315.545 1123.36C315.803 1123.71 315.932 1124.12 315.932 1124.62C315.932 1125.39 315.682 1125.99 315.182 1126.44C314.682 1126.89 314.031 1127.12 313.23 1127.12C312.43 1127.12 311.777 1126.9 311.273 1126.47C310.773 1126.03 310.523 1125.46 310.523 1124.75H311.613C311.613 1125.2 311.76 1125.56 312.053 1125.83C312.346 1126.1 312.738 1126.23 313.23 1126.23C313.754 1126.23 314.154 1126.1 314.432 1125.82C314.709 1125.55 314.848 1125.16 314.848 1124.64C314.848 1124.15 314.695 1123.77 314.391 1123.5C314.086 1123.24 313.646 1123.1 313.072 1123.09H312.258V1122.21ZM318.551 1120.66L318.58 1121.36C319.045 1120.82 319.672 1120.54 320.461 1120.54C321.348 1120.54 321.951 1120.88 322.271 1121.56C322.482 1121.26 322.756 1121.01 323.092 1120.82C323.432 1120.64 323.832 1120.54 324.293 1120.54C325.684 1120.54 326.391 1121.28 326.414 1122.75V1127H325.33V1122.82C325.33 1122.36 325.227 1122.03 325.02 1121.8C324.812 1121.58 324.465 1121.46 323.977 1121.46C323.574 1121.46 323.24 1121.58 322.975 1121.83C322.709 1122.06 322.555 1122.39 322.512 1122.79V1127H321.422V1122.85C321.422 1121.92 320.971 1121.46 320.068 1121.46C319.357 1121.46 318.871 1121.77 318.609 1122.37V1127H317.525V1120.66H318.551ZM333.287 1123.82H330.428V1122.93H333.287V1123.82ZM340.623 1123.55H338.619V1127H337.488V1118.47H340.312C341.273 1118.47 342.012 1118.69 342.527 1119.12C343.047 1119.56 343.307 1120.2 343.307 1121.04C343.307 1121.57 343.162 1122.03 342.873 1122.42C342.588 1122.82 342.189 1123.11 341.678 1123.31L343.682 1126.93V1127H342.475L340.623 1123.55ZM338.619 1122.63H340.348C340.906 1122.63 341.35 1122.48 341.678 1122.2C342.01 1121.91 342.176 1121.52 342.176 1121.04C342.176 1120.51 342.018 1120.1 341.701 1119.82C341.389 1119.54 340.936 1119.4 340.342 1119.39H338.619V1122.63Z" fill="black"/>
<path d="M312.805 1094H311.485L306.475 1086.33V1094H305.155V1084.05H306.475L311.499 1091.75V1084.05H312.805V1094ZM318.964 1094H317.692V1085.57L315.143 1086.51V1085.36L318.766 1084H318.964V1094ZM326.825 1094H325.554V1085.57L323.004 1086.51V1085.36L326.627 1084H326.825V1094Z" fill="black"/>
<path d="M311.222 1155.5C311.782 1154.81 312.511 1154.47 313.409 1154.47C314.972 1154.47 315.761 1155.35 315.774 1157.11V1162H314.51V1157.11C314.505 1156.57 314.382 1156.18 314.141 1155.92C313.904 1155.67 313.532 1155.54 313.026 1155.54C312.616 1155.54 312.256 1155.65 311.946 1155.87C311.636 1156.09 311.395 1156.37 311.222 1156.73V1162H309.957V1151.5H311.222V1155.5ZM323.451 1156.44H317.75V1155.33H323.451V1156.44ZM323.451 1159.27H317.75V1158.18H323.451V1159.27ZM329.378 1162H328.106V1153.57L325.557 1154.51V1153.36L329.18 1152H329.378V1162Z" fill="black"/>
<circle cx="186" cy="1223" r="50" fill="#C4C4C4"/>
<path d="M166.299 1227H160.709V1226.22L163.662 1222.94C164.1 1222.44 164.4 1222.04 164.564 1221.73C164.732 1221.42 164.816 1221.1 164.816 1220.77C164.816 1220.32 164.682 1219.96 164.412 1219.67C164.143 1219.38 163.783 1219.24 163.334 1219.24C162.795 1219.24 162.375 1219.4 162.074 1219.71C161.777 1220.01 161.629 1220.44 161.629 1220.98H160.545C160.545 1220.2 160.797 1219.56 161.301 1219.08C161.809 1218.59 162.486 1218.35 163.334 1218.35C164.127 1218.35 164.754 1218.56 165.215 1218.98C165.676 1219.39 165.906 1219.95 165.906 1220.64C165.906 1221.48 165.371 1222.48 164.301 1223.64L162.016 1226.12H166.299V1227ZM170.102 1226.23C170.488 1226.23 170.826 1226.12 171.115 1225.88C171.404 1225.65 171.564 1225.35 171.596 1225H172.621C172.602 1225.37 172.477 1225.71 172.246 1226.04C172.016 1226.37 171.707 1226.63 171.32 1226.82C170.938 1227.02 170.531 1227.12 170.102 1227.12C169.238 1227.12 168.551 1226.83 168.039 1226.26C167.531 1225.68 167.277 1224.89 167.277 1223.89V1223.71C167.277 1223.09 167.391 1222.54 167.617 1222.06C167.844 1221.58 168.168 1221.21 168.59 1220.94C169.016 1220.68 169.518 1220.54 170.096 1220.54C170.807 1220.54 171.396 1220.76 171.865 1221.18C172.338 1221.61 172.59 1222.16 172.621 1222.84H171.596C171.564 1222.43 171.408 1222.09 171.127 1221.83C170.85 1221.57 170.506 1221.43 170.096 1221.43C169.545 1221.43 169.117 1221.63 168.812 1222.03C168.512 1222.43 168.361 1223 168.361 1223.75V1223.95C168.361 1224.68 168.512 1225.25 168.812 1225.64C169.113 1226.04 169.543 1226.23 170.102 1226.23ZM185.031 1223.36C185.031 1224.63 184.814 1225.57 184.381 1226.19C183.947 1226.81 183.27 1227.12 182.348 1227.12C181.438 1227.12 180.764 1226.82 180.326 1226.21C179.889 1225.61 179.662 1224.71 179.646 1223.51V1222.06C179.646 1220.81 179.863 1219.88 180.297 1219.27C180.73 1218.66 181.41 1218.35 182.336 1218.35C183.254 1218.35 183.93 1218.65 184.363 1219.24C184.797 1219.82 185.02 1220.73 185.031 1221.96V1223.36ZM183.947 1221.88C183.947 1220.96 183.818 1220.29 183.561 1219.88C183.303 1219.45 182.895 1219.24 182.336 1219.24C181.781 1219.24 181.377 1219.45 181.123 1219.87C180.869 1220.29 180.738 1220.93 180.73 1221.8V1223.53C180.73 1224.45 180.863 1225.13 181.129 1225.58C181.398 1226.01 181.805 1226.23 182.348 1226.23C182.883 1226.23 183.279 1226.03 183.537 1225.61C183.799 1225.2 183.936 1224.54 183.947 1223.65V1221.88ZM187.551 1220.66L187.58 1221.36C188.045 1220.82 188.672 1220.54 189.461 1220.54C190.348 1220.54 190.951 1220.88 191.271 1221.56C191.482 1221.26 191.756 1221.01 192.092 1220.82C192.432 1220.64 192.832 1220.54 193.293 1220.54C194.684 1220.54 195.391 1221.28 195.414 1222.75V1227H194.33V1222.82C194.33 1222.36 194.227 1222.03 194.02 1221.8C193.812 1221.58 193.465 1221.46 192.977 1221.46C192.574 1221.46 192.24 1221.58 191.975 1221.83C191.709 1222.06 191.555 1222.39 191.512 1222.79V1227H190.422V1222.85C190.422 1221.92 189.971 1221.46 189.068 1221.46C188.357 1221.46 187.871 1221.77 187.609 1222.37V1227H186.525V1220.66H187.551ZM202.287 1223.82H199.428V1222.93H202.287V1223.82ZM207.625 1226.08H211.668V1227H206.494V1218.47H207.625V1226.08Z" fill="black"/>
<path d="M181.805 1194H180.485L175.475 1186.33V1194H174.155V1184.05H175.475L180.499 1191.75V1184.05H181.805V1194ZM187.964 1194H186.692V1185.57L184.143 1186.51V1185.36L187.766 1184H187.964V1194ZM198.19 1194H191.669V1193.09L195.114 1189.26C195.625 1188.68 195.976 1188.21 196.167 1187.85C196.363 1187.49 196.461 1187.11 196.461 1186.73C196.461 1186.21 196.304 1185.78 195.989 1185.45C195.675 1185.12 195.256 1184.95 194.731 1184.95C194.103 1184.95 193.613 1185.13 193.262 1185.49C192.915 1185.84 192.742 1186.34 192.742 1186.98H191.478C191.478 1186.06 191.771 1185.32 192.359 1184.76C192.952 1184.19 193.743 1183.91 194.731 1183.91C195.657 1183.91 196.388 1184.15 196.926 1184.64C197.464 1185.12 197.732 1185.77 197.732 1186.58C197.732 1187.56 197.108 1188.72 195.859 1190.08L193.193 1192.97H198.19V1194Z" fill="black"/>
<path d="M180.222 1255.5C180.782 1254.81 181.511 1254.47 182.409 1254.47C183.972 1254.47 184.761 1255.35 184.774 1257.11V1262H183.51V1257.11C183.505 1256.57 183.382 1256.18 183.141 1255.92C182.904 1255.67 182.532 1255.54 182.026 1255.54C181.616 1255.54 181.256 1255.65 180.946 1255.87C180.636 1256.09 180.395 1256.37 180.222 1256.73V1262H178.957V1251.5H180.222V1255.5ZM192.451 1256.44H186.75V1255.33H192.451V1256.44ZM192.451 1259.27H186.75V1258.18H192.451V1259.27ZM200.743 1262H194.222V1261.09L197.667 1257.26C198.177 1256.68 198.528 1256.21 198.72 1255.85C198.916 1255.49 199.014 1255.11 199.014 1254.73C199.014 1254.21 198.856 1253.78 198.542 1253.45C198.228 1253.12 197.808 1252.95 197.284 1252.95C196.655 1252.95 196.165 1253.13 195.814 1253.49C195.468 1253.84 195.295 1254.34 195.295 1254.98H194.03C194.03 1254.06 194.324 1253.32 194.912 1252.76C195.505 1252.19 196.295 1251.91 197.284 1251.91C198.209 1251.91 198.941 1252.15 199.479 1252.64C200.016 1253.12 200.285 1253.77 200.285 1254.58C200.285 1255.56 199.661 1256.72 198.412 1258.08L195.746 1260.97H200.743V1262Z" fill="black"/>
<circle cx="448" cy="1223" r="50" fill="#C4C4C4"/>
<path d="M426.271 1227H425.182V1219.78L422.996 1220.58V1219.59L426.102 1218.43H426.271V1227ZM432.102 1226.23C432.488 1226.23 432.826 1226.12 433.115 1225.88C433.404 1225.65 433.564 1225.35 433.596 1225H434.621C434.602 1225.37 434.477 1225.71 434.246 1226.04C434.016 1226.37 433.707 1226.63 433.32 1226.82C432.938 1227.02 432.531 1227.12 432.102 1227.12C431.238 1227.12 430.551 1226.83 430.039 1226.26C429.531 1225.68 429.277 1224.89 429.277 1223.89V1223.71C429.277 1223.09 429.391 1222.54 429.617 1222.06C429.844 1221.58 430.168 1221.21 430.59 1220.94C431.016 1220.68 431.518 1220.54 432.096 1220.54C432.807 1220.54 433.396 1220.76 433.865 1221.18C434.338 1221.61 434.59 1222.16 434.621 1222.84H433.596C433.564 1222.43 433.408 1222.09 433.127 1221.83C432.85 1221.57 432.506 1221.43 432.096 1221.43C431.545 1221.43 431.117 1221.63 430.812 1222.03C430.512 1222.43 430.361 1223 430.361 1223.75V1223.95C430.361 1224.68 430.512 1225.25 430.812 1225.64C431.113 1226.04 431.543 1226.23 432.102 1226.23ZM445.244 1227H444.154V1219.78L441.969 1220.58V1219.59L445.074 1218.43H445.244V1227ZM449.551 1220.66L449.58 1221.36C450.045 1220.82 450.672 1220.54 451.461 1220.54C452.348 1220.54 452.951 1220.88 453.271 1221.56C453.482 1221.26 453.756 1221.01 454.092 1220.82C454.432 1220.64 454.832 1220.54 455.293 1220.54C456.684 1220.54 457.391 1221.28 457.414 1222.75V1227H456.33V1222.82C456.33 1222.36 456.227 1222.03 456.02 1221.8C455.812 1221.58 455.465 1221.46 454.977 1221.46C454.574 1221.46 454.24 1221.58 453.975 1221.83C453.709 1222.06 453.555 1222.39 453.512 1222.79V1227H452.422V1222.85C452.422 1221.92 451.971 1221.46 451.068 1221.46C450.357 1221.46 449.871 1221.77 449.609 1222.37V1227H448.525V1220.66H449.551ZM464.287 1223.82H461.428V1222.93H464.287V1223.82ZM469.625 1226.08H473.668V1227H468.494V1218.47H469.625V1226.08Z" fill="black"/>
<path d="M443.805 1194H442.485L437.475 1186.33V1194H436.155V1184.05H437.475L442.499 1191.75V1184.05H443.805V1194ZM449.964 1194H448.692V1185.57L446.143 1186.51V1185.36L449.766 1184H449.964V1194ZM455.508 1188.41H456.458C457.055 1188.4 457.524 1188.24 457.866 1187.94C458.208 1187.63 458.379 1187.22 458.379 1186.7C458.379 1185.53 457.798 1184.95 456.636 1184.95C456.089 1184.95 455.651 1185.11 455.323 1185.42C455 1185.73 454.838 1186.14 454.838 1186.66H453.573C453.573 1185.87 453.86 1185.22 454.435 1184.7C455.013 1184.17 455.747 1183.91 456.636 1183.91C457.575 1183.91 458.311 1184.16 458.844 1184.66C459.377 1185.15 459.644 1185.84 459.644 1186.73C459.644 1187.16 459.502 1187.58 459.22 1187.98C458.942 1188.39 458.561 1188.69 458.078 1188.89C458.625 1189.07 459.047 1189.35 459.343 1189.75C459.644 1190.16 459.794 1190.65 459.794 1191.22C459.794 1192.12 459.502 1192.83 458.919 1193.35C458.336 1193.87 457.577 1194.14 456.643 1194.14C455.708 1194.14 454.947 1193.88 454.359 1193.38C453.776 1192.87 453.484 1192.2 453.484 1191.38H454.756C454.756 1191.9 454.927 1192.32 455.269 1192.63C455.61 1192.95 456.068 1193.1 456.643 1193.1C457.253 1193.1 457.72 1192.94 458.044 1192.63C458.368 1192.31 458.529 1191.85 458.529 1191.25C458.529 1190.67 458.352 1190.23 457.996 1189.92C457.641 1189.61 457.128 1189.45 456.458 1189.44H455.508V1188.41Z" fill="black"/>
<path d="M442.222 1255.5C442.782 1254.81 443.511 1254.47 444.409 1254.47C445.972 1254.47 446.761 1255.35 446.774 1257.11V1262H445.51V1257.11C445.505 1256.57 445.382 1256.18 445.141 1255.92C444.904 1255.67 444.532 1255.54 444.026 1255.54C443.616 1255.54 443.256 1255.65 442.946 1255.87C442.636 1256.09 442.395 1256.37 442.222 1256.73V1262H440.957V1251.5H442.222V1255.5ZM454.451 1256.44H448.75V1255.33H454.451V1256.44ZM454.451 1259.27H448.75V1258.18H454.451V1259.27ZM462.743 1262H456.222V1261.09L459.667 1257.26C460.177 1256.68 460.528 1256.21 460.72 1255.85C460.916 1255.49 461.014 1255.11 461.014 1254.73C461.014 1254.21 460.856 1253.78 460.542 1253.45C460.228 1253.12 459.808 1252.95 459.284 1252.95C458.655 1252.95 458.165 1253.13 457.814 1253.49C457.468 1253.84 457.295 1254.34 457.295 1254.98H456.03C456.03 1254.06 456.324 1253.32 456.912 1252.76C457.505 1252.19 458.295 1251.91 459.284 1251.91C460.209 1251.91 460.941 1252.15 461.479 1252.64C462.016 1253.12 462.285 1253.77 462.285 1254.58C462.285 1255.56 461.661 1256.72 460.412 1258.08L457.746 1260.97H462.743V1262Z" fill="black"/>
<path d="M84.2217 269.499C84.7822 268.811 85.5114 268.467 86.4092 268.467C87.9723 268.467 88.7607 269.349 88.7744 271.112V276H87.5098V271.105C87.5052 270.572 87.3822 270.178 87.1406 269.923C86.9036 269.668 86.5322 269.54 86.0264 269.54C85.6162 269.54 85.2562 269.649 84.9463 269.868C84.6364 270.087 84.3949 270.374 84.2217 270.729V276H82.957V265.5H84.2217V269.499ZM96.4512 270.436H90.75V269.335H96.4512V270.436ZM96.4512 273.272H90.75V272.179H96.4512V273.272ZM103.561 272.657H104.941V273.689H103.561V276H102.289V273.689H97.7568V272.944L102.214 266.047H103.561V272.657ZM99.1924 272.657H102.289V267.776L102.139 268.05L99.1924 272.657Z" fill="black"/>
<path d="M527.222 272.499C527.782 271.811 528.511 271.467 529.409 271.467C530.972 271.467 531.761 272.349 531.774 274.112V279H530.51V274.105C530.505 273.572 530.382 273.178 530.141 272.923C529.904 272.668 529.532 272.54 529.026 272.54C528.616 272.54 528.256 272.649 527.946 272.868C527.636 273.087 527.395 273.374 527.222 273.729V279H525.957V268.5H527.222V272.499ZM539.451 273.436H533.75V272.335H539.451V273.436ZM539.451 276.272H533.75V275.179H539.451V276.272ZM541.803 274.01L542.309 269.047H547.408V270.216H543.382L543.081 272.93C543.569 272.643 544.122 272.499 544.742 272.499C545.649 272.499 546.369 272.8 546.902 273.401C547.436 273.998 547.702 274.807 547.702 275.828C547.702 276.854 547.424 277.662 546.868 278.255C546.317 278.843 545.544 279.137 544.551 279.137C543.671 279.137 542.953 278.893 542.397 278.405C541.841 277.918 541.525 277.243 541.447 276.382H542.644C542.721 276.951 542.924 277.382 543.252 277.674C543.58 277.961 544.013 278.104 544.551 278.104C545.139 278.104 545.599 277.904 545.932 277.503C546.269 277.102 546.438 276.548 546.438 275.842C546.438 275.176 546.255 274.643 545.891 274.242C545.531 273.837 545.05 273.634 544.448 273.634C543.897 273.634 543.464 273.755 543.149 273.996L542.814 274.27L541.803 274.01Z" fill="black"/>
</svg>
